<?xml version="1.0" encoding="UTF-8" standalone="no"?>
<!-- Created with Inkscape (http://www.inkscape.org/) -->

<svg
   xmlns:dc="http://purl.org/dc/elements/1.1/"
   xmlns:cc="http://creativecommons.org/ns#"
   xmlns:rdf="http://www.w3.org/1999/02/22-rdf-syntax-ns#"
   xmlns:svg="http://www.w3.org/2000/svg"
   xmlns="http://www.w3.org/2000/svg"
   xmlns:sodipodi="http://sodipodi.sourceforge.net/DTD/sodipodi-0.dtd"
   xmlns:inkscape="http://www.inkscape.org/namespaces/inkscape"
   width="210mm"
   height="297mm"
   viewBox="0 0 210 297"
   version="1.1"
   id="svg8"
   inkscape:version="0.92.2 5c3e80d, 2017-08-06"
   sodipodi:docname="fern.svg">
  <defs
     id="defs2" />
  <sodipodi:namedview
     id="base"
     pagecolor="#ffffff"
     bordercolor="#666666"
     borderopacity="1.0"
     inkscape:pageopacity="0.0"
     inkscape:pageshadow="2"
     inkscape:zoom="1.4"
     inkscape:cx="324.81612"
     inkscape:cy="559.75391"
     inkscape:document-units="mm"
     inkscape:current-layer="layer1"
     showgrid="false"
     inkscape:window-width="1440"
     inkscape:window-height="856"
     inkscape:window-x="0"
     inkscape:window-y="0"
     inkscape:window-maximized="1" />
  <metadata
     id="metadata5">
    <rdf:RDF>
      <cc:Work
         rdf:about="">
        <dc:format>image/svg+xml</dc:format>
        <dc:type
           rdf:resource="http://purl.org/dc/dcmitype/StillImage" />
        <dc:title />
      </cc:Work>
    </rdf:RDF>
  </metadata>
  <g
     inkscape:label="Layer 1"
     inkscape:groupmode="layer"
     id="layer1">
    <path
       style="fill:none;stroke:#000000;stroke-width:0.565;stroke-linecap:butt;stroke-linejoin:miter;stroke-miterlimit:4;stroke-dasharray:none;stroke-opacity:1"
       d="m 50.270833,159.41666 c 15.71905,-7.70389 32.65008,-13.36914 61.988097,-4.53572 28.10493,8.66313 41.56317,3.24545 58.20834,-4.15774"
       id="path14"
       inkscape:connector-curvature="0"
       sodipodi:nodetypes="ccc" />
    <path
       sodipodi:nodetypes="ccc"
       inkscape:connector-curvature="0"
       id="path4550"
       d="m 69.456359,117.38617 c 4.152513,8.4728 7.206167,17.59888 2.444821,33.4125 -4.669555,15.14898 -1.749345,22.40317 2.241086,31.37515"
       style="fill:none;stroke:#000000;stroke-width:0.30454335;stroke-linecap:butt;stroke-linejoin:miter;stroke-miterlimit:4;stroke-dasharray:none;stroke-opacity:1" />
    <path
       style="fill:none;stroke:#000000;stroke-width:0.30454335;stroke-linecap:butt;stroke-linejoin:miter;stroke-miterlimit:4;stroke-dasharray:none;stroke-opacity:1"
       d="m 77.771836,116.25225 c 4.152513,8.4728 7.206167,17.59888 2.444821,33.4125 -4.669555,15.14898 -1.749345,22.40317 2.241086,31.37515"
       id="path4552"
       inkscape:connector-curvature="0"
       sodipodi:nodetypes="ccc" />
    <path
       sodipodi:nodetypes="ccc"
       inkscape:connector-curvature="0"
       id="path4554"
       d="m 87.145646,116.25225 c 4.152513,8.4728 7.206167,17.59888 2.444821,33.4125 -4.669555,15.14898 -1.749345,22.40317 2.241086,31.37515"
       style="fill:none;stroke:#000000;stroke-width:0.30454335;stroke-linecap:butt;stroke-linejoin:miter;stroke-miterlimit:4;stroke-dasharray:none;stroke-opacity:1" />
    <path
       style="fill:none;stroke:#000000;stroke-width:0.30454335;stroke-linecap:butt;stroke-linejoin:miter;stroke-miterlimit:4;stroke-dasharray:none;stroke-opacity:1"
       d="m 95.725707,116.25225 c 4.152513,8.4728 7.206183,17.59888 2.444821,33.4125 -4.669555,15.14898 -1.749345,22.40317 2.241082,31.37515"
       id="path4556"
       inkscape:connector-curvature="0"
       sodipodi:nodetypes="ccc" />
    <path
       sodipodi:nodetypes="ccc"
       inkscape:connector-curvature="0"
       id="path4558"
       d="m 104.34359,116.06326 c 4.15251,8.4728 7.20616,17.59888 2.44482,33.4125 -4.66957,15.14898 -1.74935,22.40317 2.24108,31.37515"
       style="fill:none;stroke:#000000;stroke-width:0.30454335;stroke-linecap:butt;stroke-linejoin:miter;stroke-miterlimit:4;stroke-dasharray:none;stroke-opacity:1" />
    <path
       style="fill:none;stroke:#000000;stroke-width:0.30454335;stroke-linecap:butt;stroke-linejoin:miter;stroke-miterlimit:4;stroke-dasharray:none;stroke-opacity:1"
       d="m 113.26384,115.68528 c 4.15251,8.4728 7.20616,17.59888 2.44482,33.4125 -4.66956,15.14898 -1.74935,22.40317 2.24108,31.37515"
       id="path4560"
       inkscape:connector-curvature="0"
       sodipodi:nodetypes="ccc" />
    <path
       style="fill:none;stroke:#000000;stroke-width:0.08239437;stroke-linecap:butt;stroke-linejoin:miter;stroke-miterlimit:4;stroke-dasharray:none;stroke-opacity:1"
       d="m 79.033134,120.76262 c -1.943545,1.32507 -4.036942,2.2995 -7.664368,0.78014 -3.474964,-1.49007 -5.138975,-0.55822 -7.197022,0.71514"
       id="path4566"
       inkscape:connector-curvature="0"
       sodipodi:nodetypes="ccc" />
    <path
       sodipodi:nodetypes="ccc"
       inkscape:connector-curvature="0"
       id="path4574"
       d="m 79.562301,123.93764 c -1.943545,1.32507 -4.036942,2.2995 -7.664368,0.78014 -3.474964,-1.49007 -5.138975,-0.55822 -7.197022,0.71514"
       style="fill:none;stroke:#000000;stroke-width:0.08239437;stroke-linecap:butt;stroke-linejoin:miter;stroke-miterlimit:4;stroke-dasharray:none;stroke-opacity:1" />
    <path
       style="fill:none;stroke:#000000;stroke-width:0.08239437;stroke-linecap:butt;stroke-linejoin:miter;stroke-miterlimit:4;stroke-dasharray:none;stroke-opacity:1"
       d="m 80.620635,127.11265 c -1.943545,1.32507 -4.036942,2.2995 -7.664368,0.78014 -3.474964,-1.49007 -5.138975,-0.55822 -7.197022,0.71514"
       id="path4576"
       inkscape:connector-curvature="0"
       sodipodi:nodetypes="ccc" />
    <path
       sodipodi:nodetypes="ccc"
       inkscape:connector-curvature="0"
       id="path4578"
       d="m 81.149802,130.81684 c -1.943545,1.32507 -4.036942,2.2995 -7.664368,0.78014 -3.474964,-1.49007 -5.138975,-0.55822 -7.197022,0.71514"
       style="fill:none;stroke:#000000;stroke-width:0.08239437;stroke-linecap:butt;stroke-linejoin:miter;stroke-miterlimit:4;stroke-dasharray:none;stroke-opacity:1" />
    <path
       style="fill:none;stroke:#000000;stroke-width:0.08239437;stroke-linecap:butt;stroke-linejoin:miter;stroke-miterlimit:4;stroke-dasharray:none;stroke-opacity:1"
       d="m 81.149802,134.52103 c -1.943545,1.32507 -4.036942,2.2995 -7.664368,0.78014 -3.474964,-1.49007 -5.138975,-0.55822 -7.197022,0.71514"
       id="path4580"
       inkscape:connector-curvature="0"
       sodipodi:nodetypes="ccc" />
    <path
       sodipodi:nodetypes="ccc"
       inkscape:connector-curvature="0"
       id="path4582"
       d="m 81.149802,138.22522 c -1.943545,1.32507 -4.036942,2.2995 -7.664368,0.78014 -3.474964,-1.49007 -5.138975,-0.55822 -7.197022,0.71514"
       style="fill:none;stroke:#000000;stroke-width:0.08239437;stroke-linecap:butt;stroke-linejoin:miter;stroke-miterlimit:4;stroke-dasharray:none;stroke-opacity:1" />
    <path
       style="fill:none;stroke:#000000;stroke-width:0.08239437;stroke-linecap:butt;stroke-linejoin:miter;stroke-miterlimit:4;stroke-dasharray:none;stroke-opacity:1"
       d="m 81.149802,141.9294 c -1.943545,1.32507 -4.036942,2.2995 -7.664368,0.78014 -3.474964,-1.49007 -5.138975,-0.55822 -7.197022,0.71514"
       id="path4584"
       inkscape:connector-curvature="0"
       sodipodi:nodetypes="ccc" />
    <path
       sodipodi:nodetypes="ccc"
       inkscape:connector-curvature="0"
       id="path4586"
       d="m 88.558137,122.35013 c -1.943545,1.32507 -4.036942,2.2995 -7.664368,0.78014 -3.474964,-1.49007 -5.138975,-0.55822 -7.197022,0.71514"
       style="fill:none;stroke:#000000;stroke-width:0.08239437;stroke-linecap:butt;stroke-linejoin:miter;stroke-miterlimit:4;stroke-dasharray:none;stroke-opacity:1" />
    <path
       style="fill:none;stroke:#000000;stroke-width:0.08239437;stroke-linecap:butt;stroke-linejoin:miter;stroke-miterlimit:4;stroke-dasharray:none;stroke-opacity:1"
       d="m 89.087304,125.52515 c -1.943545,1.32507 -4.036942,2.2995 -7.664368,0.78014 -3.474964,-1.49007 -5.138975,-0.55822 -7.197022,0.71514"
       id="path4588"
       inkscape:connector-curvature="0"
       sodipodi:nodetypes="ccc" />
    <path
       sodipodi:nodetypes="ccc"
       inkscape:connector-curvature="0"
       id="path4590"
       d="m 90.145638,128.70016 c -1.943545,1.32507 -4.036942,2.2995 -7.664368,0.78014 -3.474964,-1.49007 -5.138975,-0.55822 -7.197022,0.71514"
       style="fill:none;stroke:#000000;stroke-width:0.08239437;stroke-linecap:butt;stroke-linejoin:miter;stroke-miterlimit:4;stroke-dasharray:none;stroke-opacity:1" />
    <path
       style="fill:none;stroke:#000000;stroke-width:0.08239437;stroke-linecap:butt;stroke-linejoin:miter;stroke-miterlimit:4;stroke-dasharray:none;stroke-opacity:1"
       d="m 90.674805,132.40435 c -1.943545,1.32507 -4.036942,2.2995 -7.664368,0.78014 -3.474964,-1.49007 -5.138975,-0.55822 -7.197022,0.71514"
       id="path4592"
       inkscape:connector-curvature="0"
       sodipodi:nodetypes="ccc" />
    <path
       sodipodi:nodetypes="ccc"
       inkscape:connector-curvature="0"
       id="path4594"
       d="m 90.674805,136.10854 c -1.943545,1.32507 -4.036942,2.2995 -7.664368,0.78014 -3.474964,-1.49007 -5.138975,-0.55822 -7.197022,0.71514"
       style="fill:none;stroke:#000000;stroke-width:0.08239437;stroke-linecap:butt;stroke-linejoin:miter;stroke-miterlimit:4;stroke-dasharray:none;stroke-opacity:1" />
    <path
       style="fill:none;stroke:#000000;stroke-width:0.08239437;stroke-linecap:butt;stroke-linejoin:miter;stroke-miterlimit:4;stroke-dasharray:none;stroke-opacity:1"
       d="m 90.674805,139.81273 c -1.943545,1.32507 -4.036942,2.2995 -7.664368,0.78014 -3.474964,-1.49007 -5.138975,-0.55822 -7.197022,0.71514"
       id="path4596"
       inkscape:connector-curvature="0"
       sodipodi:nodetypes="ccc" />
    <path
       sodipodi:nodetypes="ccc"
       inkscape:connector-curvature="0"
       id="path4598"
       d="m 90.674805,143.51691 c -1.943545,1.32507 -4.036942,2.2995 -7.664368,0.78014 -3.474964,-1.49007 -5.138975,-0.55822 -7.197022,0.71514"
       style="fill:none;stroke:#000000;stroke-width:0.08239437;stroke-linecap:butt;stroke-linejoin:miter;stroke-miterlimit:4;stroke-dasharray:none;stroke-opacity:1" />
    <path
       style="fill:none;stroke:#000000;stroke-width:0.08239437;stroke-linecap:butt;stroke-linejoin:miter;stroke-miterlimit:4;stroke-dasharray:none;stroke-opacity:1"
       d="m 97.553976,120.76262 c -1.943545,1.32507 -4.036942,2.2995 -7.664368,0.78014 -3.474964,-1.49007 -5.138975,-0.55822 -7.197022,0.71514"
       id="path4614"
       inkscape:connector-curvature="0"
       sodipodi:nodetypes="ccc" />
    <path
       sodipodi:nodetypes="ccc"
       inkscape:connector-curvature="0"
       id="path4616"
       d="m 98.083143,123.93764 c -1.943545,1.32507 -4.036942,2.2995 -7.664368,0.78014 -3.474964,-1.49007 -5.138975,-0.55822 -7.197022,0.71514"
       style="fill:none;stroke:#000000;stroke-width:0.08239437;stroke-linecap:butt;stroke-linejoin:miter;stroke-miterlimit:4;stroke-dasharray:none;stroke-opacity:1" />
    <path
       style="fill:none;stroke:#000000;stroke-width:0.08239437;stroke-linecap:butt;stroke-linejoin:miter;stroke-miterlimit:4;stroke-dasharray:none;stroke-opacity:1"
       d="m 99.141477,127.11265 c -1.943545,1.32507 -4.036942,2.2995 -7.664368,0.78014 -3.474964,-1.49007 -5.138975,-0.55822 -7.197022,0.71514"
       id="path4618"
       inkscape:connector-curvature="0"
       sodipodi:nodetypes="ccc" />
    <path
       sodipodi:nodetypes="ccc"
       inkscape:connector-curvature="0"
       id="path4620"
       d="m 99.670644,130.81684 c -1.943545,1.32507 -4.036942,2.2995 -7.664368,0.78014 -3.474964,-1.49007 -5.138975,-0.55822 -7.197022,0.71514"
       style="fill:none;stroke:#000000;stroke-width:0.08239437;stroke-linecap:butt;stroke-linejoin:miter;stroke-miterlimit:4;stroke-dasharray:none;stroke-opacity:1" />
    <path
       style="fill:none;stroke:#000000;stroke-width:0.08239437;stroke-linecap:butt;stroke-linejoin:miter;stroke-miterlimit:4;stroke-dasharray:none;stroke-opacity:1"
       d="m 99.670644,134.52103 c -1.943545,1.32507 -4.036942,2.2995 -7.664368,0.78014 -3.474964,-1.49007 -5.138975,-0.55822 -7.197022,0.71514"
       id="path4622"
       inkscape:connector-curvature="0"
       sodipodi:nodetypes="ccc" />
    <path
       sodipodi:nodetypes="ccc"
       inkscape:connector-curvature="0"
       id="path4624"
       d="m 99.670644,138.22522 c -1.943545,1.32507 -4.036942,2.2995 -7.664368,0.78014 -3.474964,-1.49007 -5.138975,-0.55822 -7.197022,0.71514"
       style="fill:none;stroke:#000000;stroke-width:0.08239437;stroke-linecap:butt;stroke-linejoin:miter;stroke-miterlimit:4;stroke-dasharray:none;stroke-opacity:1" />
    <path
       style="fill:none;stroke:#000000;stroke-width:0.08239437;stroke-linecap:butt;stroke-linejoin:miter;stroke-miterlimit:4;stroke-dasharray:none;stroke-opacity:1"
       d="m 99.670644,141.9294 c -1.943545,1.32507 -4.036942,2.2995 -7.664368,0.78014 -3.474964,-1.49007 -5.138975,-0.55822 -7.197022,0.71514"
       id="path4626"
       inkscape:connector-curvature="0"
       sodipodi:nodetypes="ccc" />
    <path
       sodipodi:nodetypes="ccc"
       inkscape:connector-curvature="0"
       id="path4628"
       d="m 106.02065,122.8793 c -1.94354,1.32507 -4.03694,2.2995 -7.664373,0.78014 -3.474964,-1.49007 -5.138975,-0.55822 -7.197022,0.71514"
       style="fill:none;stroke:#000000;stroke-width:0.08239437;stroke-linecap:butt;stroke-linejoin:miter;stroke-miterlimit:4;stroke-dasharray:none;stroke-opacity:1" />
    <path
       style="fill:none;stroke:#000000;stroke-width:0.08239437;stroke-linecap:butt;stroke-linejoin:miter;stroke-miterlimit:4;stroke-dasharray:none;stroke-opacity:1"
       d="m 106.54982,126.05432 c -1.94355,1.32507 -4.03694,2.2995 -7.664376,0.78014 -3.474964,-1.49007 -5.138975,-0.55822 -7.197022,0.71514"
       id="path4630"
       inkscape:connector-curvature="0"
       sodipodi:nodetypes="ccc" />
    <path
       sodipodi:nodetypes="ccc"
       inkscape:connector-curvature="0"
       id="path4632"
       d="m 107.60816,129.22933 c -1.94355,1.32507 -4.03695,2.2995 -7.664382,0.78014 -3.474964,-1.49007 -5.138975,-0.55822 -7.197022,0.71514"
       style="fill:none;stroke:#000000;stroke-width:0.08239437;stroke-linecap:butt;stroke-linejoin:miter;stroke-miterlimit:4;stroke-dasharray:none;stroke-opacity:1" />
    <path
       style="fill:none;stroke:#000000;stroke-width:0.08239437;stroke-linecap:butt;stroke-linejoin:miter;stroke-miterlimit:4;stroke-dasharray:none;stroke-opacity:1"
       d="m 108.13733,132.93352 c -1.94356,1.32507 -4.03695,2.2995 -7.66439,0.78014 -3.474959,-1.49007 -5.13897,-0.55822 -7.197017,0.71514"
       id="path4634"
       inkscape:connector-curvature="0"
       sodipodi:nodetypes="ccc" />
    <path
       sodipodi:nodetypes="ccc"
       inkscape:connector-curvature="0"
       id="path4636"
       d="m 108.13733,136.63771 c -1.94356,1.32507 -4.03695,2.2995 -7.66439,0.78014 -3.474959,-1.49007 -5.13897,-0.55822 -7.197017,0.71514"
       style="fill:none;stroke:#000000;stroke-width:0.08239437;stroke-linecap:butt;stroke-linejoin:miter;stroke-miterlimit:4;stroke-dasharray:none;stroke-opacity:1" />
    <path
       style="fill:none;stroke:#000000;stroke-width:0.08239437;stroke-linecap:butt;stroke-linejoin:miter;stroke-miterlimit:4;stroke-dasharray:none;stroke-opacity:1"
       d="m 108.13733,140.3419 c -1.94356,1.32507 -4.03695,2.2995 -7.66439,0.78014 -3.474959,-1.49007 -5.13897,-0.55822 -7.197017,0.71514"
       id="path4638"
       inkscape:connector-curvature="0"
       sodipodi:nodetypes="ccc" />
    <path
       sodipodi:nodetypes="ccc"
       inkscape:connector-curvature="0"
       id="path4640"
       d="m 108.13733,144.04608 c -1.94356,1.32507 -4.03695,2.2995 -7.66439,0.78014 -3.474959,-1.49007 -5.13897,-0.55822 -7.197017,0.71514"
       style="fill:none;stroke:#000000;stroke-width:0.08239437;stroke-linecap:butt;stroke-linejoin:miter;stroke-miterlimit:4;stroke-dasharray:none;stroke-opacity:1" />
    <path
       style="fill:none;stroke:#000000;stroke-width:0.08239437;stroke-linecap:butt;stroke-linejoin:miter;stroke-miterlimit:4;stroke-dasharray:none;stroke-opacity:1"
       d="m 114.48735,121.82096 c -1.94354,1.32507 -4.03694,2.2995 -7.66438,0.78014 -3.47497,-1.49007 -5.13898,-0.55822 -7.197039,0.71514"
       id="path4642"
       inkscape:connector-curvature="0"
       sodipodi:nodetypes="ccc" />
    <path
       sodipodi:nodetypes="ccc"
       inkscape:connector-curvature="0"
       id="path4644"
       d="m 115.01652,124.99598 c -1.94355,1.32507 -4.03694,2.2995 -7.66439,0.78014 -3.47496,-1.49007 -5.13897,-0.55822 -7.19704,0.71514"
       style="fill:none;stroke:#000000;stroke-width:0.08239437;stroke-linecap:butt;stroke-linejoin:miter;stroke-miterlimit:4;stroke-dasharray:none;stroke-opacity:1" />
    <path
       style="fill:none;stroke:#000000;stroke-width:0.08239437;stroke-linecap:butt;stroke-linejoin:miter;stroke-miterlimit:4;stroke-dasharray:none;stroke-opacity:1"
       d="m 116.07486,128.17099 c -1.94355,1.32507 -4.03695,2.2995 -7.66439,0.78014 -3.47497,-1.49007 -5.13898,-0.55822 -7.19703,0.71514"
       id="path4646"
       inkscape:connector-curvature="0"
       sodipodi:nodetypes="ccc" />
    <path
       sodipodi:nodetypes="ccc"
       inkscape:connector-curvature="0"
       id="path4648"
       d="m 116.60403,131.87518 c -1.94356,1.32507 -4.03695,2.2995 -7.66439,0.78014 -3.47497,-1.49007 -5.13898,-0.55822 -7.19703,0.71514"
       style="fill:none;stroke:#000000;stroke-width:0.08239437;stroke-linecap:butt;stroke-linejoin:miter;stroke-miterlimit:4;stroke-dasharray:none;stroke-opacity:1" />
    <path
       style="fill:none;stroke:#000000;stroke-width:0.08239437;stroke-linecap:butt;stroke-linejoin:miter;stroke-miterlimit:4;stroke-dasharray:none;stroke-opacity:1"
       d="m 116.60403,135.57937 c -1.94356,1.32507 -4.03695,2.2995 -7.66439,0.78014 -3.47497,-1.49007 -5.13898,-0.55822 -7.19703,0.71514"
       id="path4650"
       inkscape:connector-curvature="0"
       sodipodi:nodetypes="ccc" />
    <path
       sodipodi:nodetypes="ccc"
       inkscape:connector-curvature="0"
       id="path4652"
       d="m 116.60403,139.28356 c -1.94356,1.32507 -4.03695,2.2995 -7.66439,0.78014 -3.47497,-1.49007 -5.13898,-0.55822 -7.19703,0.71514"
       style="fill:none;stroke:#000000;stroke-width:0.08239437;stroke-linecap:butt;stroke-linejoin:miter;stroke-miterlimit:4;stroke-dasharray:none;stroke-opacity:1" />
    <path
       style="fill:none;stroke:#000000;stroke-width:0.08239437;stroke-linecap:butt;stroke-linejoin:miter;stroke-miterlimit:4;stroke-dasharray:none;stroke-opacity:1"
       d="m 116.07486,142.98774 c -1.94356,1.32507 -4.03695,2.2995 -7.66439,0.78014 -3.47497,-1.49007 -5.13898,-0.55822 -7.19703,0.71514"
       id="path4654"
       inkscape:connector-curvature="0"
       sodipodi:nodetypes="ccc" />
    <path
       sodipodi:nodetypes="ccc"
       inkscape:connector-curvature="0"
       id="path4656"
       d="m 124.01238,120.76263 c -1.94354,1.32507 -4.03694,2.2995 -7.66438,0.78014 -3.47497,-1.49007 -5.13898,-0.55822 -7.19704,0.71514"
       style="fill:none;stroke:#000000;stroke-width:0.08239437;stroke-linecap:butt;stroke-linejoin:miter;stroke-miterlimit:4;stroke-dasharray:none;stroke-opacity:1" />
    <path
       style="fill:none;stroke:#000000;stroke-width:0.08239437;stroke-linecap:butt;stroke-linejoin:miter;stroke-miterlimit:4;stroke-dasharray:none;stroke-opacity:1"
       d="m 124.54155,123.93765 c -1.94355,1.32507 -4.03694,2.2995 -7.66439,0.78014 -3.47496,-1.49007 -5.13897,-0.55822 -7.19704,0.71514"
       id="path4658"
       inkscape:connector-curvature="0"
       sodipodi:nodetypes="ccc" />
    <path
       sodipodi:nodetypes="ccc"
       inkscape:connector-curvature="0"
       id="path4660"
       d="m 125.59989,127.11266 c -1.94355,1.32507 -4.03695,2.2995 -7.66439,0.78014 -3.47497,-1.49007 -5.13898,-0.55822 -7.19703,0.71514"
       style="fill:none;stroke:#000000;stroke-width:0.08239437;stroke-linecap:butt;stroke-linejoin:miter;stroke-miterlimit:4;stroke-dasharray:none;stroke-opacity:1" />
    <path
       style="fill:none;stroke:#000000;stroke-width:0.08239437;stroke-linecap:butt;stroke-linejoin:miter;stroke-miterlimit:4;stroke-dasharray:none;stroke-opacity:1"
       d="m 126.12906,130.81685 c -1.94356,1.32507 -4.03695,2.2995 -7.66439,0.78014 -3.47497,-1.49007 -5.13898,-0.55822 -7.19703,0.71514"
       id="path4662"
       inkscape:connector-curvature="0"
       sodipodi:nodetypes="ccc" />
    <path
       sodipodi:nodetypes="ccc"
       inkscape:connector-curvature="0"
       id="path4664"
       d="m 126.12906,134.52104 c -1.94356,1.32507 -4.03695,2.2995 -7.66439,0.78014 -3.47497,-1.49007 -5.13898,-0.55822 -7.19703,0.71514"
       style="fill:none;stroke:#000000;stroke-width:0.08239437;stroke-linecap:butt;stroke-linejoin:miter;stroke-miterlimit:4;stroke-dasharray:none;stroke-opacity:1" />
    <path
       style="fill:none;stroke:#000000;stroke-width:0.08239437;stroke-linecap:butt;stroke-linejoin:miter;stroke-miterlimit:4;stroke-dasharray:none;stroke-opacity:1"
       d="m 126.12906,138.22523 c -1.94356,1.32507 -4.03695,2.2995 -7.66439,0.78014 -3.47497,-1.49007 -5.13898,-0.55822 -7.19703,0.71514"
       id="path4666"
       inkscape:connector-curvature="0"
       sodipodi:nodetypes="ccc" />
    <path
       sodipodi:nodetypes="ccc"
       inkscape:connector-curvature="0"
       id="path4668"
       d="m 125.59989,141.92941 c -1.94356,1.32507 -4.03695,2.2995 -7.66439,0.78014 -3.47497,-1.49007 -5.13898,-0.55822 -7.19703,0.71514"
       style="fill:none;stroke:#000000;stroke-width:0.08239437;stroke-linecap:butt;stroke-linejoin:miter;stroke-miterlimit:4;stroke-dasharray:none;stroke-opacity:1" />
    <text
       xml:space="preserve"
       style="font-style:normal;font-weight:normal;font-size:10.58333302px;line-height:1.25;font-family:sans-serif;letter-spacing:0px;word-spacing:0px;fill:#000000;fill-opacity:1;stroke:none;stroke-width:0.26458332"
       x="133.4256"
       y="132.76935"
       id="text871"><tspan
         sodipodi:role="line"
         id="tspan869"
         x="133.4256"
         y="132.76935"
         style="stroke-width:0.26458332">$z$</tspan></text>
  </g>
</svg>
