<?xml version="1.0" encoding="UTF-8"?>
<svg xmlns="http://www.w3.org/2000/svg" xmlns:xlink="http://www.w3.org/1999/xlink" width="163pt" height="136pt" viewBox="0 0 163 136" version="1.1">
<g id="surface1">
<path style="fill:none;stroke-width:0.79701;stroke-linecap:butt;stroke-linejoin:miter;stroke:rgb(0%,0%,100%);stroke-opacity:1;stroke-miterlimit:10;" d="M 153.444063 128.511531 L 153.658906 128.659969 L 153.662813 128.663875 L 153.869844 128.808406 L 154.084688 128.96075 L 154.299531 129.109188 L 154.338594 129.136531 L 154.514375 129.257625 L 154.725313 129.409969 L 154.940156 129.558406 L 155.014375 129.609188 L 155.155 129.706844 L 155.365938 129.855281 L 155.580781 130.007625 L 155.690156 130.08575 L 155.791719 130.156063 L 156.002656 130.3045 L 156.2175 130.456844 L 156.365938 130.562313 L 156.428438 130.605281 L 156.639375 130.753719 L 156.854219 130.906063 L 157.041719 131.038875 L 157.065156 131.0545 L 157.487031 131.351375 L 157.697969 131.503719 L 157.7175 131.515438 L 157.908906 131.652156 L 158.119844 131.800594 L 158.330781 131.952938 L 158.393281 131.995906 L 158.541719 132.101375 L 158.752656 132.249813 L 158.963594 132.402156 L 159.174531 132.550594 L 159.381563 132.699031 L 159.5925 132.847469 L 159.744844 132.956844 L 159.803438 132.999813 L 160.010469 133.14825 L 160.221406 133.296688 L 160.416719 133.437313 L 160.432344 133.449031 L 160.846406 133.745906 L 161.057344 133.89825 L 161.0925 133.921688 L 161.264375 134.046688 L 161.471406 134.195125 L 161.682344 134.343563 L 161.768281 134.406063 L 161.889375 134.495906 M 137.065156 117.441219 L 137.291719 117.589656 L 137.455781 117.695125 L 137.522188 117.738094 L 137.74875 117.890438 L 137.975313 118.038875 L 138.131563 118.140438 L 138.205781 118.187313 L 138.432344 118.33575 L 138.658906 118.488094 L 138.807344 118.581844 L 138.889375 118.636531 L 139.115938 118.784969 L 139.3425 118.937313 L 139.483125 119.027156 L 139.569063 119.08575 L 139.795625 119.234188 L 140.022188 119.386531 L 140.155 119.476375 L 140.244844 119.534969 L 140.697969 119.831844 L 140.830781 119.921688 L 141.147188 120.132625 L 141.37375 120.281063 L 141.506563 120.370906 L 141.596406 120.433406 L 141.822969 120.581844 L 142.045625 120.730281 L 142.182344 120.824031 L 142.272188 120.882625 L 142.940156 121.327938 L 143.162813 121.480281 L 143.389375 121.628719 L 143.533906 121.726375 L 143.612031 121.777156 L 143.830781 121.9295 L 144.057344 122.077938 L 144.209688 122.1795 L 144.276094 122.226375 L 144.49875 122.378719 L 144.944063 122.675594 L 145.162813 122.824031 L 145.385469 122.976375 L 145.608125 123.124813 L 145.826875 123.27325 L 146.049531 123.425594 L 146.237031 123.550594 L 146.268281 123.574031 L 146.490938 123.722469 L 146.709688 123.874813 L 146.908906 124.007625 L 146.928438 124.02325 L 147.151094 124.171688 L 147.369844 124.320125 L 147.584688 124.468563 L 147.588594 124.472469 L 148.026094 124.769344 L 148.244844 124.921688 L 148.260469 124.9295 L 148.463594 125.070125 L 148.682344 125.218563 L 148.901094 125.370906 L 148.93625 125.394344 L 149.119844 125.519344 L 149.334688 125.667781 L 149.553438 125.816219 L 149.612031 125.855281 L 149.772188 125.968563 L 149.990938 126.117 L 150.205781 126.265438 L 150.287813 126.324031 L 150.424531 126.417781 L 150.639375 126.566219 L 150.858125 126.714656 L 150.963594 126.788875 L 151.072969 126.867 L 151.287813 127.015438 L 151.506563 127.163875 L 151.639375 127.257625 L 151.721406 127.312313 L 151.93625 127.464656 L 152.151094 127.613094 L 152.315156 127.722469 L 152.369844 127.761531 L 152.584688 127.913875 L 152.799531 128.062313 L 152.990938 128.195125 L 153.014375 128.21075 L 153.229219 128.359188 L 153.444063 128.511531 M 119.455781 106.370906 L 119.705781 106.519344 L 119.897188 106.632625 L 119.951875 106.667781 L 120.197969 106.816219 L 120.444063 106.968563 L 120.694063 107.117 L 120.940156 107.265438 L 121.18625 107.417781 L 121.244844 107.452938 L 121.432344 107.566219 L 121.674531 107.714656 L 121.920625 107.863094 L 122.166719 108.015438 L 122.412813 108.163875 L 122.596406 108.277156 L 122.655 108.312313 L 122.901094 108.464656 L 123.143281 108.613094 L 123.272188 108.691219 L 123.385469 108.761531 L 123.631563 108.913875 L 123.87375 109.062313 L 123.947969 109.109188 L 124.115938 109.21075 L 124.358125 109.363094 L 124.600313 109.511531 L 124.62375 109.52325 L 124.8425 109.659969 L 125.084688 109.808406 L 125.299531 109.941219 L 125.326875 109.96075 L 125.565156 110.109188 L 125.807344 110.257625 L 125.975313 110.363094 L 126.045625 110.409969 L 126.287813 110.558406 L 126.526094 110.706844 L 126.651094 110.784969 L 126.768281 110.859188 L 127.244844 111.156063 L 127.322969 111.206844 L 127.483125 111.3045 L 127.721406 111.456844 L 127.959688 111.605281 L 127.99875 111.628719 L 128.197969 111.753719 L 128.43625 111.906063 L 128.912813 112.202938 L 129.147188 112.355281 L 129.350313 112.480281 L 129.385469 112.503719 L 129.62375 112.652156 L 129.858125 112.800594 L 130.026094 112.909969 L 130.096406 112.952938 L 130.565156 113.249813 L 130.701875 113.33575 L 130.799531 113.402156 L 131.033906 113.550594 L 131.272188 113.699031 L 131.377656 113.765438 L 131.506563 113.851375 L 131.975313 114.14825 L 132.053438 114.199031 L 132.205781 114.296688 L 132.440156 114.449031 L 132.674531 114.597469 L 132.729219 114.632625 L 132.908906 114.745906 L 133.139375 114.89825 L 133.37375 115.046688 L 133.405 115.066219 L 133.604219 115.195125 L 133.838594 115.343563 L 134.069063 115.495906 L 134.076875 115.499813 L 134.299531 115.644344 L 134.533906 115.792781 L 134.752656 115.937313 L 134.764375 115.945125 L 135.225313 116.242 L 135.428438 116.374813 L 135.455781 116.394344 L 135.916719 116.691219 L 136.104219 116.812313 L 136.147188 116.839656 L 136.377656 116.992 L 136.604219 117.140438 L 136.78 117.253719 L 136.834688 117.288875 L 137.065156 117.441219 M 100.694063 95.597469 L 100.9675 95.745906 L 100.983125 95.753719 L 101.240938 95.89825 L 101.518281 96.046688 L 101.658906 96.124813 L 101.791719 96.195125 L 102.06125 96.347469 L 102.608125 96.644344 L 102.877656 96.792781 L 103.010469 96.867 L 103.151094 96.945125 L 103.420625 97.093563 L 103.68625 97.242 L 103.690156 97.242 L 103.959688 97.394344 L 104.229219 97.542781 L 104.362031 97.613094 L 104.49875 97.691219 L 104.768281 97.843563 L 105.037813 97.992 L 105.303438 98.140438 L 105.572969 98.288875 L 105.713594 98.370906 L 105.838594 98.441219 L 106.369844 98.738094 L 106.389375 98.749813 L 106.635469 98.890438 L 106.901094 99.038875 L 107.065156 99.128719 L 107.166719 99.187313 L 107.432344 99.339656 L 107.694063 99.488094 L 107.737031 99.511531 L 107.959688 99.636531 L 108.221406 99.784969 L 108.412813 99.894344 L 108.487031 99.937313 L 109.010469 100.234188 L 109.088594 100.281063 L 109.272188 100.386531 L 109.533906 100.534969 L 109.764375 100.667781 L 109.795625 100.683406 L 110.053438 100.831844 L 110.315156 100.984188 L 110.440156 101.0545 L 110.576875 101.132625 L 110.834688 101.281063 L 111.096406 101.433406 L 111.115938 101.445125 L 111.354219 101.581844 L 111.612031 101.730281 L 111.791719 101.83575 L 111.869844 101.882625 L 112.385469 102.1795 L 112.4675 102.226375 L 112.643281 102.327938 L 112.897188 102.480281 L 113.143281 102.620906 L 113.155 102.628719 L 113.408906 102.777156 L 113.666719 102.9295 L 113.819063 103.015438 L 113.920625 103.077938 L 114.178438 103.226375 L 114.490938 103.413875 L 114.68625 103.527156 L 114.940156 103.675594 L 115.166719 103.808406 L 115.194063 103.824031 L 115.447969 103.976375 L 115.701875 104.124813 L 115.8425 104.21075 L 115.951875 104.27325 L 116.205781 104.425594 L 116.455781 104.574031 L 116.518281 104.609188 L 116.709688 104.722469 L 116.959688 104.874813 L 117.194063 105.011531 L 117.213594 105.02325 L 117.459688 105.171688 L 117.713594 105.320125 L 117.869844 105.413875 L 117.963594 105.472469 L 118.209688 105.620906 L 118.463594 105.769344 L 118.709688 105.921688 L 119.209688 106.218563 L 119.221406 106.226375 L 119.455781 106.370906 M 80.100313 85.124813 L 80.416719 85.27325 L 80.725313 85.417781 L 80.733125 85.425594 L 81.365938 85.722469 L 81.397188 85.738094 L 81.678438 85.874813 L 81.990938 86.02325 L 82.072969 86.062313 L 82.303438 86.171688 L 82.615938 86.324031 L 82.74875 86.386531 L 82.924531 86.472469 L 83.237031 86.620906 L 83.424531 86.71075 L 83.545625 86.769344 L 83.854219 86.921688 L 84.100313 87.038875 L 84.162813 87.070125 L 84.4675 87.218563 L 84.776094 87.370906 L 85.385469 87.667781 L 85.451875 87.699031 L 85.690156 87.816219 L 85.994844 87.968563 L 86.127656 88.031063 L 86.295625 88.117 L 86.600313 88.265438 L 86.803438 88.367 L 86.901094 88.417781 L 87.201875 88.566219 L 87.475313 88.702938 L 87.502656 88.714656 L 87.803438 88.867 L 88.100313 89.015438 L 88.151094 89.038875 L 88.697969 89.312313 L 88.826875 89.378719 L 88.994844 89.464656 L 89.588594 89.761531 L 89.881563 89.913875 L 90.178438 90.062313 L 90.471406 90.21075 L 90.764375 90.363094 L 90.854219 90.406063 L 91.057344 90.511531 L 91.350313 90.659969 L 91.53 90.753719 L 91.643281 90.808406 L 91.932344 90.96075 L 92.205781 91.097469 L 92.225313 91.109188 L 92.514375 91.257625 L 92.803438 91.409969 L 92.881563 91.449031 L 93.0925 91.558406 L 93.381563 91.706844 L 93.557344 91.796688 L 93.666719 91.859188 L 93.955781 92.007625 L 94.229219 92.152156 L 94.240938 92.156063 L 94.526094 92.3045 L 94.815156 92.456844 L 94.905 92.503719 L 95.096406 92.605281 L 95.381563 92.753719 L 95.580781 92.859188 L 95.666719 92.906063 L 95.951875 93.0545 L 96.233125 93.202938 L 96.256563 93.214656 L 96.514375 93.355281 L 96.799531 93.503719 L 96.932344 93.574031 L 97.080781 93.652156 L 97.358125 93.800594 L 97.608125 93.933406 L 97.643281 93.952938 L 97.920625 94.101375 L 98.201875 94.249813 L 98.283906 94.296688 L 98.479219 94.402156 L 98.756563 94.550594 L 98.959688 94.656063 L 99.037813 94.699031 L 99.31125 94.851375 L 99.5925 94.999813 L 99.635469 95.02325 L 99.865938 95.14825 L 100.143281 95.296688 L 100.31125 95.386531 L 100.420625 95.449031 L 100.694063 95.597469 M 57.608125 75.550594 L 57.760469 75.605281 L 58.002656 75.699031 L 58.401094 75.851375 L 58.43625 75.863094 L 58.791719 75.999813 L 59.112031 76.120906 L 59.182344 76.14825 L 59.569063 76.296688 L 59.787813 76.382625 L 59.955781 76.449031 L 60.3425 76.597469 L 60.463594 76.644344 L 60.725313 76.745906 L 61.108125 76.89825 L 61.139375 76.909969 L 61.487031 77.046688 L 61.81125 77.175594 L 61.865938 77.195125 L 62.240938 77.347469 L 62.487031 77.441219 L 62.615938 77.495906 L 62.990938 77.644344 L 63.162813 77.714656 L 63.362031 77.792781 L 63.733125 77.945125 L 63.838594 77.984188 L 64.100313 78.093563 L 64.471406 78.242 L 64.514375 78.261531 L 64.834688 78.394344 L 65.190156 78.538875 L 65.201875 78.542781 L 65.56125 78.691219 L 65.865938 78.816219 L 65.928438 78.843563 L 66.283906 78.992 L 66.541719 79.097469 L 66.647188 79.140438 L 67.002656 79.288875 L 67.2175 79.378719 L 67.362031 79.441219 L 67.889375 79.663875 L 68.069063 79.738094 L 68.420625 79.890438 L 68.565156 79.949031 L 68.772188 80.038875 L 69.12375 80.187313 L 69.240938 80.238094 L 69.471406 80.339656 L 69.822969 80.488094 L 69.916719 80.527156 L 70.166719 80.636531 L 70.514375 80.784969 L 70.5925 80.820125 L 70.858125 80.937313 L 71.201875 81.08575 L 71.268281 81.113094 L 71.545625 81.234188 L 71.885469 81.386531 L 71.944063 81.409969 L 72.225313 81.534969 L 72.565156 81.683406 L 72.619844 81.706844 L 72.905 81.83575 L 73.240938 81.984188 L 73.295625 82.007625 L 73.576875 82.132625 L 73.912813 82.281063 L 73.971406 82.308406 L 74.244844 82.433406 L 74.580781 82.581844 L 74.643281 82.609188 L 74.908906 82.730281 L 75.244844 82.882625 L 75.319063 82.913875 L 75.572969 83.031063 L 75.901094 83.1795 L 75.994844 83.222469 L 76.229219 83.331844 L 76.557344 83.480281 L 76.670625 83.531063 L 76.885469 83.628719 L 77.209688 83.777156 L 77.346406 83.839656 L 77.533906 83.9295 L 77.858125 84.077938 L 78.022188 84.152156 L 78.182344 84.226375 L 78.502656 84.378719 L 78.697969 84.468563 L 78.822969 84.527156 L 79.143281 84.675594 L 79.37375 84.781063 L 79.463594 84.827938 L 79.783906 84.976375 L 80.049531 85.101375 L 80.100313 85.124813 M 28.045625 67.827938 L 28.428438 67.769344 L 28.7175 67.714656 L 29.389375 67.620906 L 29.393281 67.620906 L 30.069063 67.546688 L 30.744844 67.546688 L 31.381563 67.620906 L 31.420625 67.624813 L 32.096406 67.730281 L 32.260469 67.769344 L 32.772188 67.863094 L 32.994844 67.921688 L 33.447969 68.011531 L 33.674531 68.070125 L 34.12375 68.167781 L 34.322969 68.218563 L 34.799531 68.327938 L 34.947969 68.370906 L 35.471406 68.495906 L 35.557344 68.519344 L 36.147188 68.667781 L 36.155 68.667781 L 36.733125 68.820125 L 36.822969 68.839656 L 37.303438 68.968563 L 37.49875 69.015438 L 37.862031 69.117 L 38.174531 69.199031 L 38.416719 69.265438 L 38.850313 69.382625 L 38.9675 69.417781 L 39.510469 69.566219 L 39.526094 69.570125 L 40.037813 69.714656 L 40.201875 69.757625 L 40.56125 69.867 L 40.877656 69.952938 L 41.084688 70.015438 L 41.604219 70.163875 L 42.108125 70.316219 L 42.225313 70.347469 L 42.612031 70.464656 L 42.901094 70.546688 L 43.108125 70.613094 L 43.576875 70.753719 L 43.608125 70.761531 L 44.0925 70.913875 L 44.252656 70.96075 L 44.576875 71.062313 L 44.928438 71.167781 L 45.06125 71.21075 L 45.537813 71.363094 L 45.604219 71.382625 L 46.006563 71.511531 L 46.28 71.597469 L 46.475313 71.659969 L 46.944063 71.812313 L 46.955781 71.812313 L 47.401094 71.96075 L 47.631563 72.031063 L 47.858125 72.109188 L 48.303438 72.253719 L 48.319063 72.257625 L 48.764375 72.409969 L 48.979219 72.480281 L 49.213594 72.558406 L 49.655 72.706844 L 49.662813 72.706844 L 50.100313 72.859188 L 50.330781 72.933406 L 50.537813 73.007625 L 50.975313 73.156063 L 51.006563 73.167781 L 51.408906 73.308406 L 51.682344 73.402156 L 51.838594 73.456844 L 52.268281 73.605281 L 52.358125 73.636531 L 52.690156 73.753719 L 53.033906 73.874813 L 53.115938 73.906063 L 53.533906 74.0545 L 53.709688 74.117 L 53.951875 74.202938 L 54.369844 74.355281 L 54.385469 74.359188 L 54.78 74.503719 L 55.057344 74.605281 L 55.190156 74.652156 L 55.600313 74.800594 L 55.733125 74.851375 L 56.002656 74.952938 L 56.408906 75.101375 L 56.81125 75.249813 L 57.084688 75.351375 L 57.209688 75.402156 L 57.608125 75.550594 M 6.619844 64.777156 L 6.432344 64.792781 L 5.756563 64.863094 L 5.201875 64.9295 L 5.080781 64.945125 L 4.405 65.046688 L 4.2175 65.077938 L 3.729219 65.167781 L 3.451875 65.226375 L 3.053438 65.320125 L 2.826875 65.378719 L 2.377656 65.503719 L 2.299531 65.527156 L 1.858125 65.675594 L 1.705781 65.734188 L 1.483125 65.827938 L 1.158906 65.976375 L 1.03 66.042781 L 0.885469 66.124813 L 0.655 66.27325 L 0.459688 66.425594 L 0.354219 66.519344 L 0.299531 66.574031 L 0.178438 66.722469 L 0.0885938 66.874813 L 0.03 67.02325 L -0.00125 67.171688 L -0.00125 67.324031 L 0.03 67.472469 L 0.0885938 67.620906 L 0.178438 67.769344 L 0.299531 67.921688 L 0.354219 67.976375 L 0.459688 68.070125 L 0.655 68.218563 L 0.885469 68.370906 L 1.03 68.452938 L 1.158906 68.519344 L 1.483125 68.667781 L 1.705781 68.761531 L 1.858125 68.820125 L 2.299531 68.968563 L 2.377656 68.992 L 2.826875 69.117 L 3.053438 69.175594 L 3.451875 69.265438 L 3.729219 69.324031 L 4.2175 69.417781 L 4.405 69.449031 L 5.080781 69.550594 L 5.201875 69.566219 L 5.756563 69.632625 L 6.432344 69.699031 L 6.619844 69.714656 L 7.108125 69.753719 L 7.783906 69.792781 L 8.459688 69.824031 L 9.131563 69.843563 L 9.807344 69.851375 L 10.483125 69.851375 L 11.158906 69.843563 L 11.834688 69.827938 L 12.510469 69.8045 L 13.18625 69.77325 L 13.862031 69.738094 L 14.205781 69.714656 L 14.537813 69.695125 L 15.209688 69.644344 L 15.885469 69.589656 L 16.151094 69.566219 L 16.56125 69.527156 L 17.237031 69.46075 L 17.678438 69.417781 L 17.912813 69.390438 L 18.588594 69.312313 L 18.994844 69.265438 L 19.264375 69.234188 L 19.940156 69.14825 L 20.174531 69.117 L 20.615938 69.058406 L 21.256563 68.968563 L 21.291719 68.964656 L 21.963594 68.863094 L 22.276094 68.820125 L 22.639375 68.761531 L 23.233125 68.667781 L 23.315156 68.656063 L 23.990938 68.542781 L 24.151094 68.519344 L 24.666719 68.4295 L 25.033906 68.370906 L 25.3425 68.312313 L 25.885469 68.218563 L 26.018281 68.195125 L 26.694063 68.074031 L 26.721406 68.070125 L 27.369844 67.949031 L 27.565156 67.921688 L 28.045625 67.827938 M 45.537813 63.132625 L 45.06125 63.281063 L 44.928438 63.324031 L 44.576875 63.433406 L 44.252656 63.534969 L 44.0925 63.581844 L 43.608125 63.730281 L 43.576875 63.742 L 43.108125 63.882625 L 42.901094 63.945125 L 42.612031 64.031063 L 42.225313 64.14825 L 42.108125 64.1795 L 41.604219 64.331844 L 41.084688 64.480281 L 40.877656 64.542781 L 40.56125 64.628719 L 40.201875 64.734188 L 40.037813 64.777156 L 39.526094 64.925594 L 39.510469 64.9295 L 38.9675 65.077938 L 38.850313 65.113094 L 38.416719 65.226375 L 38.174531 65.296688 L 37.862031 65.378719 L 37.49875 65.480281 L 37.303438 65.527156 L 36.822969 65.656063 L 36.733125 65.675594 L 36.155 65.827938 L 36.147188 65.827938 L 35.557344 65.976375 L 35.471406 65.999813 L 34.947969 66.124813 L 34.799531 66.167781 L 34.322969 66.27325 L 34.12375 66.327938 L 33.674531 66.425594 L 33.447969 66.484188 L 32.994844 66.574031 L 32.772188 66.628719 L 32.260469 66.722469 L 32.096406 66.765438 L 31.420625 66.870906 L 31.381563 66.874813 L 30.744844 66.945125 L 30.069063 66.945125 L 29.393281 66.874813 L 29.389375 66.874813 L 28.7175 66.781063 L 28.428438 66.722469 L 28.045625 66.667781 L 27.565156 66.574031 L 27.369844 66.542781 L 26.721406 66.425594 L 26.694063 66.421688 L 26.018281 66.300594 L 25.885469 66.27325 L 25.3425 66.183406 L 25.033906 66.124813 L 24.666719 66.066219 L 24.151094 65.976375 L 23.990938 65.952938 L 23.315156 65.839656 L 23.233125 65.827938 L 22.639375 65.734188 L 22.276094 65.675594 L 21.963594 65.632625 L 21.291719 65.531063 L 21.256563 65.527156 L 20.615938 65.437313 L 20.174531 65.378719 L 19.940156 65.347469 L 19.264375 65.261531 L 18.994844 65.226375 L 18.588594 65.1795 L 17.912813 65.105281 L 17.678438 65.077938 L 17.237031 65.031063 L 16.56125 64.964656 L 16.151094 64.9295 L 15.885469 64.906063 L 15.209688 64.851375 L 14.537813 64.800594 L 14.205781 64.777156 L 13.862031 64.757625 L 13.18625 64.722469 L 12.510469 64.691219 L 11.834688 64.667781 L 11.158906 64.652156 L 10.483125 64.644344 L 9.807344 64.644344 L 9.131563 64.652156 L 8.459688 64.671688 L 7.783906 64.702938 L 7.108125 64.742 L 6.619844 64.777156 M 70.166719 53.859188 L 69.916719 53.968563 L 69.822969 54.007625 L 69.471406 54.156063 L 69.240938 54.257625 L 69.12375 54.308406 L 68.772188 54.456844 L 68.565156 54.546688 L 68.420625 54.605281 L 68.069063 54.753719 L 67.889375 54.831844 L 67.362031 55.0545 L 67.2175 55.117 L 67.002656 55.202938 L 66.647188 55.355281 L 66.541719 55.39825 L 66.283906 55.503719 L 65.928438 55.652156 L 65.865938 55.6795 L 65.56125 55.8045 L 65.201875 55.952938 L 65.190156 55.956844 L 64.834688 56.101375 L 64.514375 56.234188 L 64.471406 56.249813 L 64.100313 56.402156 L 63.838594 56.507625 L 63.733125 56.550594 L 63.362031 56.699031 L 63.162813 56.781063 L 62.990938 56.851375 L 62.615938 56.999813 L 62.487031 57.050594 L 62.240938 57.14825 L 61.865938 57.300594 L 61.81125 57.320125 L 61.487031 57.449031 L 61.139375 57.58575 L 61.108125 57.597469 L 60.725313 57.745906 L 60.463594 57.851375 L 60.3425 57.89825 L 59.955781 58.046688 L 59.787813 58.113094 L 59.569063 58.195125 L 59.182344 58.347469 L 59.112031 58.374813 L 58.791719 58.495906 L 58.43625 58.632625 L 58.401094 58.644344 L 58.002656 58.796688 L 57.760469 58.886531 L 57.608125 58.945125 L 57.209688 59.093563 L 57.084688 59.140438 L 56.81125 59.242 L 56.412813 59.394344 L 56.002656 59.542781 L 55.733125 59.644344 L 55.600313 59.691219 L 55.190156 59.843563 L 55.057344 59.890438 L 54.78 59.992 L 54.385469 60.136531 L 54.369844 60.140438 L 53.951875 60.288875 L 53.709688 60.378719 L 53.533906 60.441219 L 53.115938 60.589656 L 53.033906 60.620906 L 52.690156 60.738094 L 52.358125 60.859188 L 52.268281 60.890438 L 51.838594 61.038875 L 51.682344 61.093563 L 51.408906 61.187313 L 51.006563 61.327938 L 50.975313 61.339656 L 50.537813 61.488094 L 50.330781 61.558406 L 50.100313 61.636531 L 49.662813 61.784969 L 49.655 61.788875 L 49.213594 61.937313 L 48.979219 62.015438 L 48.764375 62.08575 L 48.319063 62.234188 L 48.303438 62.242 L 47.858125 62.386531 L 47.631563 62.46075 L 47.401094 62.534969 L 46.955781 62.683406 L 46.944063 62.683406 L 46.475313 62.83575 L 46.28 62.89825 L 46.006563 62.984188 L 45.604219 63.113094 L 45.537813 63.132625 M 91.643281 43.683406 L 91.53 43.742 L 91.350313 43.83575 L 91.057344 43.984188 L 90.854219 44.089656 L 90.764375 44.132625 L 90.471406 44.284969 L 90.178438 44.433406 L 89.881563 44.581844 L 89.588594 44.730281 L 89.502656 44.77325 L 89.291719 44.882625 L 88.994844 45.031063 L 88.826875 45.117 L 88.697969 45.1795 L 88.401094 45.331844 L 88.151094 45.452938 L 88.100313 45.480281 L 87.803438 45.628719 L 87.502656 45.781063 L 87.475313 45.792781 L 87.201875 45.9295 L 86.901094 46.077938 L 86.803438 46.128719 L 86.600313 46.226375 L 86.295625 46.378719 L 86.127656 46.46075 L 85.994844 46.527156 L 85.690156 46.675594 L 85.451875 46.796688 L 85.385469 46.827938 L 84.776094 47.124813 L 84.4675 47.27325 L 84.100313 47.456844 L 83.854219 47.574031 L 83.545625 47.722469 L 83.424531 47.781063 L 83.237031 47.874813 L 82.924531 48.02325 L 82.74875 48.109188 L 82.615938 48.171688 L 82.303438 48.324031 L 82.072969 48.433406 L 81.990938 48.472469 L 81.678438 48.620906 L 81.397188 48.753719 L 81.365938 48.769344 L 81.049531 48.921688 L 80.733125 49.070125 L 80.725313 49.077938 L 80.416719 49.218563 L 80.100313 49.370906 L 80.049531 49.394344 L 79.783906 49.519344 L 79.463594 49.667781 L 79.37375 49.71075 L 79.143281 49.820125 L 78.822969 49.968563 L 78.697969 50.027156 L 78.502656 50.117 L 78.182344 50.265438 L 78.022188 50.343563 L 77.858125 50.417781 L 77.533906 50.566219 L 77.346406 50.652156 L 77.209688 50.714656 L 76.885469 50.867 L 76.670625 50.964656 L 76.557344 51.015438 L 76.229219 51.163875 L 75.994844 51.27325 L 75.901094 51.316219 L 75.572969 51.464656 L 75.319063 51.577938 L 75.244844 51.613094 L 74.908906 51.761531 L 74.643281 51.882625 L 74.580781 51.913875 L 74.244844 52.062313 L 73.971406 52.187313 L 73.912813 52.21075 L 73.576875 52.363094 L 73.295625 52.488094 L 73.240938 52.511531 L 72.905 52.659969 L 72.619844 52.788875 L 72.565156 52.812313 L 72.225313 52.96075 L 71.944063 53.08575 L 71.885469 53.109188 L 71.545625 53.257625 L 71.268281 53.382625 L 71.201875 53.409969 L 70.858125 53.558406 L 70.5925 53.675594 L 70.514375 53.706844 L 70.166719 53.859188 M 111.115938 33.050594 L 111.096406 33.062313 L 110.834688 33.21075 L 110.576875 33.363094 L 110.440156 33.441219 L 110.315156 33.511531 L 110.053438 33.659969 L 109.795625 33.812313 L 109.764375 33.827938 L 109.533906 33.96075 L 109.272188 34.109188 L 109.088594 34.214656 L 109.010469 34.257625 L 108.74875 34.409969 L 108.487031 34.558406 L 108.412813 34.601375 L 108.221406 34.706844 L 107.959688 34.859188 L 107.737031 34.984188 L 107.694063 35.007625 L 107.432344 35.156063 L 107.166719 35.308406 L 107.065156 35.367 L 106.901094 35.456844 L 106.635469 35.605281 L 106.389375 35.745906 L 106.369844 35.753719 L 106.104219 35.906063 L 105.838594 36.0545 L 105.713594 36.124813 L 105.572969 36.202938 L 105.303438 36.355281 L 105.037813 36.503719 L 104.768281 36.652156 L 104.49875 36.8045 L 104.362031 36.878719 L 104.229219 36.952938 L 103.690156 37.249813 L 103.68625 37.253719 L 103.420625 37.402156 L 103.151094 37.550594 L 103.010469 37.628719 L 102.877656 37.699031 L 102.608125 37.851375 L 102.06125 38.14825 L 101.791719 38.300594 L 101.658906 38.370906 L 101.518281 38.449031 L 101.240938 38.597469 L 100.983125 38.738094 L 100.9675 38.745906 L 100.694063 38.89825 L 100.420625 39.046688 L 100.31125 39.105281 L 100.143281 39.195125 L 99.865938 39.347469 L 99.635469 39.472469 L 99.5925 39.495906 L 99.31125 39.644344 L 99.037813 39.796688 L 98.959688 39.83575 L 98.756563 39.945125 L 98.479219 40.093563 L 98.283906 40.199031 L 98.201875 40.242 L 97.920625 40.394344 L 97.643281 40.542781 L 97.608125 40.562313 L 97.358125 40.691219 L 97.080781 40.843563 L 96.932344 40.921688 L 96.799531 40.992 L 96.514375 41.140438 L 96.256563 41.277156 L 96.233125 41.292781 L 95.951875 41.441219 L 95.666719 41.589656 L 95.580781 41.636531 L 95.381563 41.738094 L 95.096406 41.890438 L 94.905 41.992 L 94.815156 42.038875 L 94.526094 42.187313 L 94.240938 42.339656 L 94.229219 42.343563 L 93.955781 42.488094 L 93.666719 42.636531 L 93.557344 42.695125 L 93.381563 42.788875 L 93.0925 42.937313 L 92.881563 43.046688 L 92.803438 43.08575 L 92.514375 43.234188 L 92.225313 43.386531 L 92.205781 43.394344 L 91.932344 43.534969 L 91.643281 43.683406 M 129.350313 22.015438 L 129.147188 22.140438 L 128.912813 22.292781 L 128.197969 22.738094 L 127.99875 22.867 L 127.959688 22.890438 L 127.483125 23.187313 L 127.322969 23.288875 L 127.244844 23.339656 L 126.768281 23.636531 L 126.651094 23.71075 L 126.526094 23.788875 L 126.287813 23.937313 L 126.045625 24.08575 L 125.975313 24.132625 L 125.807344 24.234188 L 125.565156 24.386531 L 125.326875 24.534969 L 125.299531 24.550594 L 125.084688 24.683406 L 124.8425 24.83575 L 124.62375 24.968563 L 124.600313 24.984188 L 124.358125 25.132625 L 124.115938 25.284969 L 123.947969 25.386531 L 123.87375 25.433406 L 123.631563 25.581844 L 123.385469 25.730281 L 123.272188 25.8045 L 123.143281 25.882625 L 122.901094 26.031063 L 122.655 26.1795 L 122.596406 26.218563 L 122.412813 26.331844 L 121.920625 26.628719 L 121.674531 26.781063 L 121.432344 26.9295 L 121.244844 27.042781 L 121.18625 27.077938 L 120.940156 27.226375 L 120.694063 27.378719 L 120.444063 27.527156 L 120.197969 27.675594 L 119.951875 27.827938 L 119.897188 27.859188 L 119.705781 27.976375 L 119.455781 28.124813 L 119.221406 28.269344 L 119.209688 28.277156 L 118.709688 28.574031 L 118.545625 28.675594 L 118.463594 28.722469 L 118.209688 28.874813 L 117.963594 29.02325 L 117.869844 29.077938 L 117.459688 29.324031 L 117.213594 29.472469 L 117.194063 29.484188 L 116.959688 29.620906 L 116.709688 29.77325 L 116.518281 29.886531 L 116.455781 29.921688 L 116.205781 30.070125 L 115.951875 30.218563 L 115.8425 30.284969 L 115.701875 30.370906 L 115.194063 30.667781 L 115.166719 30.683406 L 114.940156 30.820125 L 114.68625 30.968563 L 114.490938 31.081844 L 114.178438 31.269344 L 113.920625 31.417781 L 113.819063 31.480281 L 113.666719 31.566219 L 113.408906 31.714656 L 113.155 31.867 L 113.143281 31.874813 L 112.897188 32.015438 L 112.643281 32.163875 L 112.4675 32.269344 L 112.385469 32.316219 L 111.869844 32.613094 L 111.791719 32.659969 L 111.612031 32.765438 L 111.354219 32.913875 L 111.115938 33.050594 M 146.049531 11.070125 L 145.826875 11.218563 L 145.608125 11.370906 L 145.162813 11.667781 L 144.944063 11.820125 L 144.49875 12.117 L 144.276094 12.269344 L 144.209688 12.312313 L 144.057344 12.417781 L 143.830781 12.566219 L 143.612031 12.714656 L 143.533906 12.769344 L 143.389375 12.867 L 143.162813 13.015438 L 142.940156 13.163875 L 142.858125 13.222469 L 142.272188 13.613094 L 142.182344 13.671688 L 142.045625 13.765438 L 141.822969 13.913875 L 141.596406 14.062313 L 141.506563 14.124813 L 141.37375 14.21075 L 141.147188 14.363094 L 140.830781 14.574031 L 140.697969 14.659969 L 140.471406 14.812313 L 140.244844 14.96075 L 140.155 15.019344 L 140.022188 15.109188 L 139.795625 15.261531 L 139.569063 15.409969 L 139.483125 15.468563 L 139.3425 15.558406 L 139.115938 15.706844 L 138.889375 15.859188 L 138.807344 15.913875 L 138.658906 16.007625 L 138.432344 16.156063 L 138.205781 16.308406 L 138.131563 16.355281 L 137.975313 16.456844 L 137.74875 16.605281 L 137.522188 16.757625 L 137.455781 16.800594 L 137.291719 16.906063 L 137.065156 17.0545 L 136.834688 17.202938 L 136.78 17.242 L 136.604219 17.355281 L 136.377656 17.503719 L 136.147188 17.652156 L 136.104219 17.6795 L 135.916719 17.8045 L 135.455781 18.101375 L 135.428438 18.120906 L 135.225313 18.253719 L 134.764375 18.550594 L 134.752656 18.558406 L 134.533906 18.699031 L 134.299531 18.851375 L 134.076875 18.995906 L 134.069063 18.999813 L 133.838594 19.14825 L 133.604219 19.300594 L 133.405 19.4295 L 133.37375 19.449031 L 133.139375 19.597469 L 132.908906 19.745906 L 132.729219 19.863094 L 132.674531 19.89825 L 132.205781 20.195125 L 132.053438 20.296688 L 131.975313 20.347469 L 131.506563 20.644344 L 131.377656 20.726375 L 131.272188 20.796688 L 131.033906 20.945125 L 130.799531 21.093563 L 130.701875 21.159969 L 130.565156 21.242 L 130.330781 21.394344 L 130.096406 21.542781 L 130.026094 21.58575 L 129.858125 21.691219 L 129.62375 21.843563 L 129.385469 21.992 L 129.350313 22.015438 M 161.889375 -0.0001875 L 161.768281 0.08575 L 161.682344 0.14825 L 161.471406 0.300594 L 161.264375 0.449031 L 161.0925 0.574031 L 161.057344 0.597469 L 160.846406 0.749813 L 160.432344 1.046688 L 160.416719 1.0545 L 160.221406 1.195125 L 160.010469 1.347469 L 159.803438 1.495906 L 159.744844 1.538875 L 159.5925 1.644344 L 159.381563 1.796688 L 159.174531 1.945125 L 158.963594 2.093563 L 158.752656 2.245906 L 158.541719 2.394344 L 158.393281 2.499813 L 158.330781 2.542781 L 158.119844 2.691219 L 157.908906 2.843563 L 157.7175 2.980281 L 157.697969 2.992 L 157.487031 3.140438 L 157.276094 3.292781 L 157.065156 3.441219 L 157.041719 3.456844 L 156.854219 3.589656 L 156.639375 3.742 L 156.428438 3.890438 L 156.365938 3.933406 L 156.2175 4.038875 L 156.002656 4.187313 L 155.791719 4.339656 L 155.690156 4.409969 L 155.580781 4.488094 L 155.365938 4.636531 L 155.155 4.788875 L 155.014375 4.882625 L 154.940156 4.937313 L 154.725313 5.08575 L 154.514375 5.238094 L 154.338594 5.359188 L 154.299531 5.386531 L 153.869844 5.683406 L 153.662813 5.831844 L 153.658906 5.83575 L 153.229219 6.132625 L 153.014375 6.284969 L 152.990938 6.300594 L 152.799531 6.433406 L 152.369844 6.730281 L 152.315156 6.769344 L 152.151094 6.882625 L 151.721406 7.1795 L 151.639375 7.238094 L 151.506563 7.331844 L 151.287813 7.480281 L 151.072969 7.628719 L 150.963594 7.706844 L 150.858125 7.781063 L 150.639375 7.9295 L 150.424531 8.077938 L 150.287813 8.171688 L 150.205781 8.226375 L 149.990938 8.378719 L 149.772188 8.527156 L 149.612031 8.636531 L 149.553438 8.675594 L 149.334688 8.827938 L 149.119844 8.976375 L 148.93625 9.101375 L 148.901094 9.124813 L 148.682344 9.277156 L 148.463594 9.425594 L 148.260469 9.562313 L 148.244844 9.574031 L 148.026094 9.722469 L 147.807344 9.874813 L 147.588594 10.02325 L 147.584688 10.027156 L 147.369844 10.171688 L 147.151094 10.324031 L 146.928438 10.472469 L 146.908906 10.484188 L 146.709688 10.620906 L 146.490938 10.77325 L 146.268281 10.921688 L 146.237031 10.945125 L 146.049531 11.070125 " transform="matrix(1,0,0,-1,0.72,135.492)"/>
</g>
</svg>
