<?xml version="1.0" encoding="UTF-8"?>
<svg xmlns="http://www.w3.org/2000/svg" xmlns:xlink="http://www.w3.org/1999/xlink" width="163pt" height="136pt" viewBox="0 0 163 136" version="1.1">
<g id="surface1">
<path style="fill:none;stroke-width:0.79701;stroke-linecap:butt;stroke-linejoin:miter;stroke:rgb(0%,0%,100%);stroke-opacity:1;stroke-miterlimit:10;" d="M 156.037813 130.007625 L 156.233125 130.156063 L 156.240938 130.163875 L 156.432344 130.3045 L 156.627656 130.456844 L 156.826875 130.605281 L 156.877656 130.644344 L 157.022188 130.753719 L 157.2175 130.906063 L 157.416719 131.0545 L 157.807344 131.351375 L 158.002656 131.503719 L 158.151094 131.613094 L 158.197969 131.652156 L 158.393281 131.800594 L 158.5925 131.952938 L 158.983125 132.249813 L 159.178438 132.402156 L 159.37375 132.550594 L 159.424531 132.589656 L 159.565156 132.699031 L 159.760469 132.847469 L 159.955781 132.999813 L 160.06125 133.077938 L 160.151094 133.14825 L 160.346406 133.296688 L 160.537813 133.449031 L 160.697969 133.570125 L 160.733125 133.597469 L 160.928438 133.745906 L 161.119844 133.89825 L 161.315156 134.046688 L 161.330781 134.058406 L 161.506563 134.195125 L 161.701875 134.343563 L 161.893281 134.495906 M 140.783906 118.784969 L 140.971406 118.921688 L 140.994844 118.937313 L 141.201875 119.08575 L 141.412813 119.234188 L 141.608125 119.374813 L 141.619844 119.386531 L 141.830781 119.534969 L 142.244844 119.831844 L 142.24875 119.831844 L 142.455781 119.984188 L 142.662813 120.132625 L 142.87375 120.281063 L 142.881563 120.288875 L 143.080781 120.433406 L 143.494844 120.730281 L 143.518281 120.745906 L 143.701875 120.882625 L 144.115938 121.1795 L 144.155 121.206844 L 144.322969 121.327938 L 144.53 121.480281 L 144.737031 121.628719 L 144.791719 121.667781 L 144.944063 121.777156 L 145.151094 121.9295 L 145.358125 122.077938 L 145.424531 122.128719 L 145.56125 122.226375 L 145.768281 122.378719 L 145.971406 122.527156 L 146.06125 122.589656 L 146.178438 122.675594 L 146.381563 122.824031 L 146.588594 122.976375 L 146.697969 123.0545 L 146.791719 123.124813 L 146.99875 123.27325 L 147.201875 123.425594 L 147.334688 123.519344 L 147.405 123.574031 L 147.612031 123.722469 L 147.815156 123.874813 L 147.971406 123.988094 L 148.018281 124.02325 L 148.424531 124.320125 L 148.608125 124.456844 L 148.627656 124.472469 L 149.033906 124.769344 L 149.237031 124.921688 L 149.244844 124.925594 L 149.440156 125.070125 L 149.643281 125.218563 L 149.846406 125.370906 L 149.881563 125.394344 L 150.045625 125.519344 L 150.451875 125.816219 L 150.514375 125.867 L 150.651094 125.968563 L 150.854219 126.117 L 151.053438 126.265438 L 151.151094 126.339656 L 151.256563 126.417781 L 151.455781 126.566219 L 151.658906 126.714656 L 151.787813 126.812313 L 151.858125 126.867 L 152.057344 127.015438 L 152.260469 127.163875 L 152.424531 127.288875 L 152.459688 127.312313 L 152.658906 127.464656 L 152.858125 127.613094 L 153.06125 127.761531 L 153.260469 127.913875 L 153.658906 128.21075 L 153.697969 128.242 L 153.858125 128.359188 L 154.057344 128.511531 L 154.256563 128.659969 L 154.334688 128.718563 L 154.451875 128.808406 L 154.651094 128.96075 L 154.850313 129.109188 L 154.971406 129.199031 L 155.049531 129.257625 L 155.244844 129.409969 L 155.444063 129.558406 L 155.604219 129.6795 L 155.643281 129.706844 L 155.838594 129.855281 L 156.037813 130.007625 M 124.905 107.867 L 125.065156 107.972469 L 125.131563 108.015438 L 125.354219 108.163875 L 125.580781 108.312313 L 125.701875 108.394344 L 126.03 108.613094 L 126.256563 108.761531 L 126.338594 108.816219 L 126.479219 108.913875 L 126.701875 109.062313 L 126.928438 109.21075 L 126.975313 109.242 L 127.151094 109.363094 L 127.596406 109.659969 L 127.612031 109.667781 L 127.819063 109.808406 L 128.041719 109.96075 L 128.24875 110.097469 L 128.264375 110.109188 L 128.487031 110.257625 L 128.709688 110.409969 L 128.932344 110.558406 L 129.151094 110.706844 L 129.37375 110.859188 L 129.518281 110.956844 L 129.5925 111.007625 L 129.815156 111.156063 L 130.033906 111.3045 L 130.155 111.386531 L 130.256563 111.456844 L 130.694063 111.753719 L 130.791719 111.820125 L 130.912813 111.906063 L 131.131563 112.0545 L 131.354219 112.202938 L 131.428438 112.253719 L 131.572969 112.355281 L 132.010469 112.652156 L 132.065156 112.691219 L 132.225313 112.800594 L 132.444063 112.952938 L 132.662813 113.101375 L 132.701875 113.128719 L 132.881563 113.249813 L 133.096406 113.402156 L 133.315156 113.550594 L 133.338594 113.566219 L 133.53 113.699031 L 133.74875 113.851375 L 133.963594 113.999813 L 133.975313 114.003719 L 134.182344 114.14825 L 134.397188 114.296688 L 134.608125 114.445125 L 134.612031 114.449031 L 135.041719 114.745906 L 135.244844 114.886531 L 135.260469 114.89825 L 135.690156 115.195125 L 135.881563 115.331844 L 135.905 115.343563 L 136.115938 115.495906 L 136.330781 115.644344 L 136.518281 115.77325 L 136.545625 115.792781 L 136.760469 115.945125 L 136.971406 116.093563 L 137.155 116.222469 L 137.18625 116.242 L 137.397188 116.394344 L 137.612031 116.542781 L 137.791719 116.667781 L 137.826875 116.691219 L 138.037813 116.839656 L 138.24875 116.992 L 138.428438 117.117 L 138.463594 117.140438 L 138.674531 117.288875 L 138.885469 117.441219 L 139.065156 117.566219 L 139.096406 117.589656 L 139.307344 117.738094 L 139.518281 117.890438 L 139.697969 118.015438 L 139.729219 118.038875 L 140.151094 118.33575 L 140.334688 118.468563 L 140.362031 118.488094 L 140.783906 118.784969 M 107.897188 97.093563 L 108.143281 97.242 L 108.389375 97.394344 L 108.522188 97.472469 L 108.635469 97.542781 L 108.885469 97.691219 L 109.131563 97.843563 L 109.158906 97.859188 L 109.377656 97.992 L 109.619844 98.140438 L 109.795625 98.245906 L 109.865938 98.288875 L 110.112031 98.441219 L 110.358125 98.589656 L 110.432344 98.636531 L 110.600313 98.738094 L 110.8425 98.890438 L 111.069063 99.027156 L 111.088594 99.038875 L 111.330781 99.187313 L 111.572969 99.339656 L 111.705781 99.417781 L 111.815156 99.488094 L 112.299531 99.784969 L 112.3425 99.812313 L 112.541719 99.937313 L 112.783906 100.08575 L 112.979219 100.206844 L 113.026094 100.234188 L 113.264375 100.386531 L 113.506563 100.534969 L 113.612031 100.601375 L 113.744844 100.683406 L 113.983125 100.831844 L 114.225313 100.984188 L 114.24875 100.999813 L 114.459688 101.132625 L 114.701875 101.281063 L 114.885469 101.39825 L 114.940156 101.433406 L 115.174531 101.581844 L 115.412813 101.730281 L 115.522188 101.800594 L 115.651094 101.882625 L 115.889375 102.031063 L 116.12375 102.1795 L 116.158906 102.199031 L 116.362031 102.327938 L 116.596406 102.480281 L 116.795625 102.605281 L 116.834688 102.628719 L 117.069063 102.777156 L 117.303438 102.9295 L 117.432344 103.007625 L 117.537813 103.077938 L 117.772188 103.226375 L 118.006563 103.378719 L 118.069063 103.413875 L 118.240938 103.527156 L 118.475313 103.675594 L 118.701875 103.824031 L 118.709688 103.824031 L 118.940156 103.976375 L 119.174531 104.124813 L 119.338594 104.230281 L 119.408906 104.27325 L 119.639375 104.425594 L 119.869844 104.574031 L 119.975313 104.640438 L 120.104219 104.722469 L 120.334688 104.874813 L 120.565156 105.02325 L 120.612031 105.0545 L 120.795625 105.171688 L 121.026094 105.320125 L 121.24875 105.464656 L 121.256563 105.472469 L 121.7175 105.769344 L 121.885469 105.878719 L 121.947969 105.921688 L 122.174531 106.070125 L 122.405 106.218563 L 122.522188 106.296688 L 122.631563 106.370906 L 122.862031 106.519344 L 123.088594 106.667781 L 123.158906 106.71075 L 123.315156 106.816219 L 123.545625 106.968563 L 123.772188 107.117 L 123.791719 107.132625 L 123.99875 107.265438 L 124.225313 107.417781 L 124.428438 107.550594 L 124.451875 107.566219 L 124.678438 107.714656 L 124.905 107.867 M 89.459688 86.620906 L 89.740938 86.769344 L 90.022188 86.921688 L 90.072969 86.945125 L 90.303438 87.070125 L 90.580781 87.218563 L 90.709688 87.284969 L 90.862031 87.370906 L 91.139375 87.519344 L 91.346406 87.628719 L 91.416719 87.667781 L 91.694063 87.816219 L 91.971406 87.968563 L 91.979219 87.972469 L 92.244844 88.117 L 92.522188 88.265438 L 92.615938 88.320125 L 92.795625 88.417781 L 93.069063 88.566219 L 93.252656 88.663875 L 93.346406 88.714656 L 93.615938 88.867 L 94.162813 89.163875 L 94.432344 89.312313 L 94.526094 89.363094 L 94.705781 89.464656 L 94.975313 89.613094 L 95.162813 89.714656 L 95.244844 89.761531 L 95.514375 89.913875 L 95.783906 90.062313 L 95.799531 90.070125 L 96.049531 90.21075 L 96.319063 90.363094 L 96.43625 90.425594 L 96.584688 90.511531 L 96.854219 90.659969 L 97.069063 90.781063 L 97.119844 90.808406 L 97.385469 90.96075 L 97.651094 91.109188 L 97.705781 91.140438 L 97.916719 91.257625 L 98.178438 91.409969 L 98.3425 91.499813 L 98.444063 91.558406 L 98.705781 91.706844 L 98.971406 91.859188 L 98.979219 91.863094 L 99.233125 92.007625 L 99.494844 92.156063 L 99.615938 92.226375 L 99.756563 92.3045 L 100.014375 92.456844 L 100.252656 92.589656 L 100.276094 92.605281 L 100.537813 92.753719 L 100.795625 92.906063 L 100.889375 92.956844 L 101.057344 93.0545 L 101.315156 93.202938 L 101.526094 93.324031 L 101.572969 93.355281 L 102.088594 93.652156 L 102.162813 93.695125 L 102.346406 93.800594 L 102.600313 93.952938 L 102.795625 94.066219 L 102.858125 94.101375 L 103.112031 94.249813 L 103.369844 94.402156 L 103.432344 94.437313 L 103.62375 94.550594 L 103.877656 94.699031 L 104.069063 94.812313 L 104.131563 94.851375 L 104.639375 95.14825 L 104.705781 95.187313 L 104.893281 95.296688 L 105.143281 95.449031 L 105.3425 95.566219 L 105.397188 95.597469 L 105.647188 95.745906 L 105.979219 95.945125 L 106.151094 96.046688 L 106.401094 96.195125 L 106.615938 96.324031 L 106.651094 96.347469 L 107.151094 96.644344 L 107.252656 96.706844 L 107.397188 96.792781 L 107.647188 96.945125 L 107.885469 97.089656 L 107.897188 97.093563 M 69.072969 76.745906 L 69.416719 76.89825 L 69.713594 77.02325 L 69.760469 77.046688 L 70.100313 77.195125 L 70.350313 77.3045 L 70.444063 77.347469 L 70.78 77.495906 L 70.983125 77.58575 L 71.119844 77.644344 L 71.455781 77.792781 L 71.619844 77.867 L 71.791719 77.945125 L 72.12375 78.093563 L 72.256563 78.152156 L 72.455781 78.242 L 72.787813 78.394344 L 72.893281 78.441219 L 73.115938 78.542781 L 73.444063 78.691219 L 73.53 78.730281 L 73.772188 78.843563 L 74.096406 78.992 L 74.166719 79.02325 L 74.420625 79.140438 L 74.744844 79.288875 L 74.803438 79.316219 L 75.069063 79.441219 L 75.389375 79.589656 L 75.440156 79.613094 L 75.709688 79.738094 L 76.03 79.890438 L 76.072969 79.909969 L 76.346406 80.038875 L 76.662813 80.187313 L 76.709688 80.21075 L 76.979219 80.339656 L 77.295625 80.488094 L 77.346406 80.511531 L 77.608125 80.636531 L 77.920625 80.784969 L 77.983125 80.816219 L 78.233125 80.937313 L 78.545625 81.08575 L 78.619844 81.120906 L 78.854219 81.234188 L 79.162813 81.386531 L 79.256563 81.4295 L 79.471406 81.534969 L 79.776094 81.683406 L 79.893281 81.738094 L 80.084688 81.83575 L 80.389375 81.984188 L 80.53 82.050594 L 80.694063 82.132625 L 80.994844 82.281063 L 81.162813 82.363094 L 81.299531 82.433406 L 81.600313 82.581844 L 81.799531 82.6795 L 81.901094 82.730281 L 82.201875 82.882625 L 82.43625 82.995906 L 82.502656 83.031063 L 83.072969 83.316219 L 83.100313 83.331844 L 83.393281 83.480281 L 83.690156 83.628719 L 83.709688 83.636531 L 83.987031 83.777156 L 84.28 83.9295 L 84.346406 83.96075 L 84.572969 84.077938 L 84.865938 84.226375 L 84.983125 84.284969 L 85.158906 84.378719 L 85.451875 84.527156 L 85.619844 84.613094 L 85.740938 84.675594 L 86.033906 84.827938 L 86.256563 84.941219 L 86.322969 84.976375 L 86.608125 85.124813 L 86.889375 85.269344 L 86.901094 85.27325 L 87.18625 85.425594 L 87.471406 85.574031 L 87.526094 85.601375 L 87.756563 85.722469 L 88.045625 85.874813 L 88.162813 85.937313 L 88.326875 86.02325 L 88.612031 86.171688 L 88.799531 86.269344 L 88.897188 86.324031 L 89.178438 86.472469 L 89.43625 86.609188 L 89.459688 86.620906 M 42.916719 68.070125 L 42.990938 68.081844 L 43.627656 68.199031 L 43.721406 68.218563 L 44.260469 68.324031 L 44.4675 68.370906 L 44.897188 68.456844 L 45.170625 68.519344 L 45.533906 68.597469 L 45.8425 68.667781 L 46.170625 68.742 L 46.487031 68.820125 L 46.807344 68.894344 L 47.104219 68.968563 L 47.444063 69.050594 L 47.697969 69.117 L 48.080781 69.214656 L 48.28 69.265438 L 48.7175 69.382625 L 48.8425 69.417781 L 49.350313 69.5545 L 49.389375 69.566219 L 49.924531 69.714656 L 49.987031 69.734188 L 50.444063 69.867 L 50.62375 69.917781 L 50.955781 70.015438 L 51.260469 70.105281 L 51.459688 70.163875 L 51.897188 70.296688 L 51.955781 70.316219 L 52.440156 70.464656 L 52.533906 70.492 L 52.916719 70.613094 L 53.170625 70.691219 L 53.385469 70.761531 L 53.807344 70.89825 L 53.854219 70.913875 L 54.31125 71.062313 L 54.444063 71.105281 L 55.076875 71.316219 L 55.209688 71.363094 L 55.651094 71.511531 L 55.713594 71.531063 L 56.084688 71.659969 L 56.350313 71.749813 L 56.518281 71.812313 L 56.947969 71.96075 L 56.987031 71.972469 L 57.369844 72.109188 L 57.62375 72.199031 L 57.787813 72.257625 L 58.205781 72.409969 L 58.260469 72.4295 L 58.615938 72.558406 L 58.897188 72.659969 L 59.428438 72.859188 L 59.533906 72.894344 L 59.830781 73.007625 L 60.166719 73.132625 L 60.229219 73.156063 L 60.62375 73.308406 L 60.803438 73.374813 L 61.014375 73.456844 L 61.408906 73.605281 L 61.440156 73.617 L 61.791719 73.753719 L 62.076875 73.863094 L 62.178438 73.906063 L 62.56125 74.0545 L 62.713594 74.113094 L 62.940156 74.202938 L 63.319063 74.355281 L 63.350313 74.367 L 63.690156 74.503719 L 63.987031 74.620906 L 64.065156 74.652156 L 64.432344 74.800594 L 64.62375 74.878719 L 64.803438 74.952938 L 65.170625 75.101375 L 65.256563 75.136531 L 65.53 75.249813 L 65.893281 75.402156 L 66.252656 75.550594 L 66.53 75.663875 L 66.9675 75.851375 L 67.166719 75.933406 L 67.322969 75.999813 L 67.678438 76.14825 L 67.803438 76.202938 L 68.026094 76.296688 L 68.377656 76.449031 L 68.440156 76.472469 L 68.725313 76.597469 L 69.072969 76.745906 M 0.362031 64.902156 L 0.381563 64.9295 L 0.506563 65.077938 L 0.647188 65.226375 L 0.803438 65.378719 L 0.979219 65.527156 L 0.99875 65.542781 L 1.182344 65.675594 L 1.401094 65.827938 L 1.631563 65.968563 L 1.643281 65.976375 L 1.916719 66.124813 L 2.268281 66.300594 L 2.545625 66.425594 L 2.901094 66.574031 L 3.31125 66.722469 L 3.541719 66.8045 L 3.752656 66.874813 L 4.178438 67.003719 L 4.24875 67.02325 L 4.803438 67.171688 L 4.815156 67.175594 L 5.43625 67.324031 L 5.451875 67.324031 L 6.088594 67.456844 L 6.166719 67.472469 L 6.725313 67.574031 L 7.026094 67.620906 L 7.358125 67.671688 L 7.994844 67.761531 L 8.069063 67.769344 L 8.631563 67.839656 L 9.268281 67.906063 L 9.447969 67.921688 L 9.905 67.96075 L 10.541719 68.007625 L 11.178438 68.046688 L 11.635469 68.070125 L 11.815156 68.077938 L 12.447969 68.101375 L 13.084688 68.120906 L 13.721406 68.132625 L 14.358125 68.136531 L 14.994844 68.136531 L 15.631563 68.132625 L 16.268281 68.124813 L 16.905 68.109188 L 17.537813 68.089656 L 18.147188 68.070125 L 18.174531 68.070125 L 19.447969 68.015438 L 20.084688 67.984188 L 20.721406 67.949031 L 21.205781 67.921688 L 21.358125 67.909969 L 22.631563 67.831844 L 23.264375 67.788875 L 23.553438 67.769344 L 23.901094 67.745906 L 25.174531 67.659969 L 25.733125 67.620906 L 25.81125 67.617 L 26.447969 67.570125 L 27.084688 67.531063 L 27.721406 67.488094 L 27.99875 67.472469 L 28.354219 67.449031 L 29.627656 67.378719 L 30.264375 67.347469 L 30.865938 67.324031 L 30.901094 67.320125 L 31.537813 67.296688 L 32.81125 67.265438 L 33.444063 67.261531 L 34.080781 67.261531 L 34.7175 67.269344 L 35.354219 67.281063 L 35.990938 67.3045 L 36.37375 67.324031 L 36.627656 67.331844 L 37.264375 67.370906 L 37.901094 67.417781 L 38.537813 67.472469 L 39.170625 67.534969 L 39.807344 67.605281 L 39.932344 67.620906 L 40.444063 67.683406 L 41.069063 67.769344 L 41.080781 67.77325 L 41.7175 67.867 L 42.037813 67.921688 L 42.354219 67.972469 L 42.916719 68.070125 M 35.990938 60.464656 L 35.354219 60.488094 L 34.7175 60.503719 L 34.080781 60.507625 L 33.444063 60.507625 L 32.81125 60.503719 L 32.174531 60.492 L 31.537813 60.472469 L 30.901094 60.449031 L 30.690156 60.441219 L 30.264375 60.421688 L 28.990938 60.359188 L 28.354219 60.320125 L 27.877656 60.288875 L 27.721406 60.281063 L 27.084688 60.242 L 25.81125 60.156063 L 25.62375 60.140438 L 25.174531 60.109188 L 23.901094 60.02325 L 23.444063 59.992 L 23.264375 59.980281 L 22.631563 59.937313 L 21.358125 59.859188 L 21.076875 59.843563 L 20.721406 59.820125 L 18.81125 59.726375 L 18.174531 59.699031 L 17.932344 59.691219 L 17.537813 59.6795 L 16.905 59.659969 L 15.631563 59.636531 L 14.994844 59.632625 L 14.358125 59.632625 L 13.721406 59.636531 L 13.084688 59.64825 L 12.447969 59.667781 L 11.815156 59.691219 L 11.787813 59.691219 L 11.178438 59.722469 L 10.541719 59.761531 L 9.905 59.808406 L 9.533906 59.843563 L 9.268281 59.867 L 8.631563 59.933406 L 8.131563 59.992 L 7.994844 60.007625 L 7.358125 60.097469 L 7.072969 60.140438 L 6.725313 60.199031 L 6.205781 60.288875 L 6.088594 60.312313 L 5.4675 60.441219 L 5.451875 60.445125 L 4.830781 60.589656 L 4.815156 60.593563 L 4.276094 60.738094 L 4.178438 60.765438 L 3.78 60.890438 L 3.541719 60.964656 L 3.330781 61.038875 L 2.920625 61.187313 L 2.905 61.195125 L 2.56125 61.339656 L 2.268281 61.468563 L 1.932344 61.636531 L 1.655 61.784969 L 1.631563 61.800594 L 1.412813 61.937313 L 1.190156 62.08575 L 0.99875 62.226375 L 0.987031 62.234188 L 0.81125 62.386531 L 0.655 62.534969 L 0.510469 62.683406 L 0.385469 62.83575 L 0.362031 62.870906 L 0.283906 62.984188 L 0.197969 63.132625 L 0.127656 63.281063 L 0.0729688 63.433406 L 0.0339063 63.581844 L 0.0065625 63.730281 L -0.00125 63.882625 L 0.0065625 64.031063 L 0.03 64.1795 L 0.0690625 64.331844 L 0.12375 64.480281 L 0.194063 64.628719 L 0.28 64.777156 L 0.362031 64.902156 M 65.18625 52.659969 L 64.819063 52.812313 L 64.62375 52.890438 L 64.451875 52.96075 L 64.080781 53.109188 L 63.987031 53.14825 L 63.709688 53.257625 L 63.350313 53.402156 L 63.338594 53.409969 L 62.955781 53.558406 L 62.713594 53.656063 L 62.580781 53.706844 L 62.197969 53.859188 L 62.076875 53.906063 L 61.81125 54.007625 L 61.440156 54.152156 L 61.428438 54.156063 L 61.033906 54.308406 L 60.803438 54.394344 L 60.643281 54.456844 L 60.24875 54.605281 L 60.166719 54.636531 L 59.850313 54.753719 L 59.533906 54.874813 L 59.447969 54.906063 L 59.045625 55.0545 L 58.897188 55.109188 L 58.635469 55.202938 L 58.260469 55.343563 L 58.225313 55.355281 L 57.807344 55.503719 L 57.62375 55.570125 L 57.389375 55.652156 L 56.987031 55.796688 L 56.9675 55.8045 L 56.537813 55.952938 L 56.350313 56.019344 L 56.108125 56.101375 L 55.713594 56.238094 L 55.674531 56.249813 L 55.229219 56.402156 L 54.444063 56.663875 L 54.334688 56.699031 L 53.807344 56.874813 L 53.408906 56.999813 L 53.170625 57.077938 L 52.940156 57.14825 L 52.533906 57.277156 L 52.463594 57.300594 L 51.979219 57.449031 L 51.897188 57.472469 L 51.483125 57.597469 L 51.260469 57.667781 L 50.983125 57.745906 L 50.62375 57.855281 L 50.471406 57.89825 L 49.987031 58.034969 L 49.951875 58.046688 L 49.416719 58.195125 L 49.350313 58.214656 L 48.869844 58.347469 L 48.7175 58.386531 L 48.307344 58.495906 L 48.080781 58.558406 L 47.729219 58.644344 L 47.444063 58.718563 L 47.131563 58.796688 L 46.807344 58.874813 L 46.518281 58.945125 L 46.170625 59.027156 L 45.877656 59.093563 L 45.533906 59.171688 L 45.205781 59.242 L 44.897188 59.312313 L 44.502656 59.394344 L 44.260469 59.445125 L 43.756563 59.542781 L 43.627656 59.570125 L 42.990938 59.687313 L 42.959688 59.691219 L 42.354219 59.800594 L 42.084688 59.843563 L 41.7175 59.902156 L 41.119844 59.992 L 41.080781 59.995906 L 40.444063 60.08575 L 39.994844 60.140438 L 39.807344 60.163875 L 39.170625 60.238094 L 38.612031 60.288875 L 38.537813 60.296688 L 37.901094 60.355281 L 37.264375 60.39825 L 36.627656 60.437313 L 36.537813 60.441219 L 35.990938 60.464656 M 86.045625 42.937313 L 85.756563 43.08575 L 85.619844 43.159969 L 85.4675 43.234188 L 85.174531 43.386531 L 84.983125 43.484188 L 84.881563 43.534969 L 84.588594 43.683406 L 84.346406 43.808406 L 84.295625 43.83575 L 83.99875 43.984188 L 83.709688 44.132625 L 83.705781 44.132625 L 83.408906 44.284969 L 82.518281 44.730281 L 82.43625 44.77325 L 82.2175 44.882625 L 81.916719 45.031063 L 81.799531 45.089656 L 81.615938 45.1795 L 81.315156 45.331844 L 81.010469 45.480281 L 80.709688 45.628719 L 80.405 45.781063 L 80.100313 45.9295 L 79.893281 46.031063 L 79.791719 46.077938 L 79.487031 46.226375 L 79.256563 46.339656 L 79.178438 46.378719 L 78.869844 46.527156 L 78.619844 46.64825 L 78.56125 46.675594 L 78.24875 46.827938 L 77.983125 46.952938 L 77.93625 46.976375 L 77.62375 47.124813 L 77.346406 47.257625 L 77.31125 47.27325 L 76.994844 47.425594 L 76.709688 47.558406 L 76.678438 47.574031 L 76.362031 47.722469 L 76.072969 47.859188 L 76.045625 47.874813 L 75.725313 48.02325 L 75.440156 48.159969 L 75.405 48.171688 L 75.084688 48.324031 L 74.803438 48.452938 L 74.764375 48.472469 L 74.43625 48.620906 L 74.166719 48.749813 L 74.115938 48.769344 L 73.787813 48.921688 L 73.53 49.038875 L 73.459688 49.070125 L 73.131563 49.218563 L 72.893281 49.327938 L 72.803438 49.370906 L 72.471406 49.519344 L 72.256563 49.617 L 72.139375 49.667781 L 71.807344 49.820125 L 71.619844 49.902156 L 71.471406 49.968563 L 71.135469 50.117 L 70.983125 50.187313 L 70.799531 50.265438 L 70.459688 50.417781 L 70.350313 50.468563 L 70.119844 50.566219 L 69.78 50.714656 L 69.713594 50.745906 L 69.432344 50.867 L 69.0925 51.015438 L 69.076875 51.02325 L 68.740938 51.163875 L 68.440156 51.296688 L 68.397188 51.316219 L 68.045625 51.464656 L 67.803438 51.570125 L 67.694063 51.613094 L 67.3425 51.761531 L 67.166719 51.839656 L 66.987031 51.913875 L 66.631563 52.062313 L 66.53 52.105281 L 66.272188 52.21075 L 65.912813 52.363094 L 65.893281 52.370906 L 65.549531 52.511531 L 65.256563 52.632625 L 65.18625 52.659969 M 104.705781 32.581844 L 104.651094 32.613094 L 104.397188 32.765438 L 104.143281 32.913875 L 104.069063 32.956844 L 103.889375 33.062313 L 103.635469 33.21075 L 103.432344 33.331844 L 103.381563 33.363094 L 103.127656 33.511531 L 102.869844 33.659969 L 102.795625 33.702938 L 102.615938 33.812313 L 102.358125 33.96075 L 102.162813 34.074031 L 102.100313 34.109188 L 101.8425 34.257625 L 101.584688 34.409969 L 101.526094 34.445125 L 101.326875 34.558406 L 101.069063 34.706844 L 100.889375 34.812313 L 100.81125 34.859188 L 100.549531 35.007625 L 100.291719 35.156063 L 100.252656 35.1795 L 100.03 35.308406 L 99.768281 35.456844 L 99.615938 35.542781 L 99.506563 35.605281 L 99.244844 35.753719 L 98.983125 35.906063 L 98.979219 35.906063 L 98.455781 36.202938 L 98.3425 36.269344 L 98.194063 36.355281 L 97.928438 36.503719 L 97.705781 36.628719 L 97.662813 36.652156 L 97.397188 36.8045 L 97.131563 36.952938 L 97.069063 36.988094 L 96.865938 37.101375 L 96.600313 37.249813 L 96.43625 37.343563 L 96.330781 37.402156 L 95.799531 37.699031 L 95.526094 37.851375 L 95.260469 37.999813 L 95.162813 38.0545 L 94.987031 38.14825 L 94.7175 38.300594 L 94.526094 38.406063 L 94.447969 38.449031 L 94.174531 38.597469 L 93.905 38.745906 L 93.889375 38.757625 L 93.631563 38.89825 L 93.358125 39.046688 L 93.252656 39.105281 L 93.084688 39.195125 L 92.81125 39.347469 L 92.615938 39.452938 L 92.537813 39.495906 L 92.260469 39.644344 L 91.987031 39.796688 L 91.979219 39.796688 L 91.432344 40.093563 L 91.346406 40.140438 L 91.151094 40.242 L 90.87375 40.394344 L 90.709688 40.484188 L 90.596406 40.542781 L 90.315156 40.691219 L 90.072969 40.824031 L 90.037813 40.843563 L 89.475313 41.140438 L 89.43625 41.163875 L 89.190156 41.292781 L 88.908906 41.441219 L 88.799531 41.499813 L 88.627656 41.589656 L 88.3425 41.738094 L 88.162813 41.83575 L 88.057344 41.890438 L 87.772188 42.038875 L 87.526094 42.167781 L 87.487031 42.187313 L 87.197969 42.339656 L 86.912813 42.488094 L 86.889375 42.499813 L 86.62375 42.636531 L 86.338594 42.788875 L 86.256563 42.831844 L 86.045625 42.937313 M 121.885469 21.890438 L 121.729219 21.992 L 121.49875 22.140438 L 121.268281 22.292781 L 121.24875 22.3045 L 121.037813 22.441219 L 120.807344 22.589656 L 120.612031 22.718563 L 120.576875 22.738094 L 120.346406 22.890438 L 120.115938 23.038875 L 119.975313 23.128719 L 119.881563 23.187313 L 119.651094 23.339656 L 119.416719 23.488094 L 119.338594 23.538875 L 119.18625 23.636531 L 118.951875 23.788875 L 118.721406 23.937313 L 118.701875 23.949031 L 118.487031 24.08575 L 118.252656 24.234188 L 118.069063 24.355281 L 118.018281 24.386531 L 117.549531 24.683406 L 117.432344 24.761531 L 116.846406 25.132625 L 116.795625 25.167781 L 116.608125 25.284969 L 116.37375 25.433406 L 116.158906 25.570125 L 116.139375 25.581844 L 115.901094 25.730281 L 115.662813 25.882625 L 115.522188 25.972469 L 115.424531 26.031063 L 115.18625 26.1795 L 114.951875 26.331844 L 114.885469 26.370906 L 114.713594 26.480281 L 114.475313 26.628719 L 114.24875 26.769344 L 114.237031 26.781063 L 113.994844 26.9295 L 113.756563 27.077938 L 113.612031 27.167781 L 113.518281 27.226375 L 113.276094 27.378719 L 113.037813 27.527156 L 112.979219 27.566219 L 112.795625 27.675594 L 112.553438 27.827938 L 112.3425 27.96075 L 112.31125 27.976375 L 112.069063 28.124813 L 111.826875 28.277156 L 111.100313 28.722469 L 111.069063 28.745906 L 110.858125 28.874813 L 110.612031 29.02325 L 110.432344 29.136531 L 110.369844 29.171688 L 110.12375 29.324031 L 109.881563 29.472469 L 109.795625 29.52325 L 109.635469 29.620906 L 109.389375 29.77325 L 109.158906 29.909969 L 109.143281 29.921688 L 108.651094 30.218563 L 108.522188 30.296688 L 108.401094 30.370906 L 107.908906 30.667781 L 107.885469 30.683406 L 107.658906 30.820125 L 107.408906 30.968563 L 107.252656 31.066219 L 107.162813 31.117 L 106.912813 31.269344 L 106.662813 31.417781 L 106.615938 31.445125 L 106.412813 31.566219 L 106.162813 31.714656 L 105.979219 31.827938 L 105.912813 31.867 L 105.658906 32.015438 L 105.408906 32.163875 L 105.3425 32.206844 L 105.155 32.316219 L 104.905 32.464656 L 104.705781 32.581844 M 137.834688 11.070125 L 137.791719 11.101375 L 137.62375 11.218563 L 137.408906 11.370906 L 137.197969 11.519344 L 137.155 11.550594 L 136.983125 11.667781 L 136.768281 11.820125 L 136.557344 11.968563 L 136.518281 11.995906 L 136.3425 12.117 L 136.127656 12.269344 L 135.912813 12.417781 L 135.881563 12.441219 L 135.697969 12.566219 L 135.483125 12.714656 L 135.268281 12.867 L 135.244844 12.882625 L 135.053438 13.015438 L 134.838594 13.163875 L 134.62375 13.316219 L 134.608125 13.324031 L 134.408906 13.464656 L 134.190156 13.613094 L 133.975313 13.765438 L 133.760469 13.913875 L 133.541719 14.062313 L 133.338594 14.202938 L 133.326875 14.21075 L 133.108125 14.363094 L 132.889375 14.511531 L 132.701875 14.644344 L 132.674531 14.659969 L 132.455781 14.812313 L 132.237031 14.96075 L 132.065156 15.077938 L 132.018281 15.109188 L 131.799531 15.261531 L 131.580781 15.409969 L 131.428438 15.515438 L 131.365938 15.558406 L 131.143281 15.706844 L 130.924531 15.859188 L 130.791719 15.949031 L 130.705781 16.007625 L 130.487031 16.156063 L 130.268281 16.308406 L 130.155 16.382625 L 129.826875 16.605281 L 129.604219 16.757625 L 129.518281 16.812313 L 129.385469 16.906063 L 128.940156 17.202938 L 128.885469 17.245906 L 128.276094 17.652156 L 128.24875 17.671688 L 128.053438 17.8045 L 127.830781 17.952938 L 127.612031 18.101375 L 127.608125 18.101375 L 127.385469 18.253719 L 126.940156 18.550594 L 126.713594 18.699031 L 126.490938 18.851375 L 126.268281 18.999813 L 126.041719 19.14825 L 125.819063 19.300594 L 125.701875 19.374813 L 125.5925 19.449031 L 125.365938 19.597469 L 125.143281 19.745906 L 125.065156 19.796688 L 124.916719 19.89825 L 124.463594 20.195125 L 124.428438 20.218563 L 124.237031 20.347469 L 124.010469 20.495906 L 123.791719 20.640438 L 123.783906 20.644344 L 123.557344 20.796688 L 123.326875 20.945125 L 123.158906 21.058406 L 123.100313 21.093563 L 122.87375 21.242 L 122.643281 21.394344 L 122.522188 21.476375 L 122.416719 21.542781 L 122.18625 21.691219 L 121.955781 21.843563 L 121.885469 21.890438 M 153.069063 -0.0001875 L 153.06125 0.007625 L 152.869844 0.14825 L 152.670625 0.300594 L 152.471406 0.449031 L 152.424531 0.484188 L 152.268281 0.597469 L 152.069063 0.749813 L 151.869844 0.89825 L 151.787813 0.956844 L 151.666719 1.046688 L 151.4675 1.195125 L 151.264375 1.347469 L 151.151094 1.433406 L 151.065156 1.495906 L 150.862031 1.644344 L 150.662813 1.796688 L 150.514375 1.906063 L 150.459688 1.945125 L 150.260469 2.093563 L 150.057344 2.245906 L 149.881563 2.374813 L 149.854219 2.394344 L 149.651094 2.542781 L 149.451875 2.691219 L 149.24875 2.843563 L 149.244844 2.847469 L 149.045625 2.992 L 148.8425 3.140438 L 148.608125 3.316219 L 148.43625 3.441219 L 148.233125 3.589656 L 148.03 3.742 L 147.971406 3.781063 L 147.822969 3.890438 L 147.416719 4.187313 L 147.334688 4.249813 L 147.213594 4.339656 L 147.006563 4.488094 L 146.803438 4.636531 L 146.697969 4.714656 L 146.600313 4.788875 L 146.393281 4.937313 L 146.190156 5.08575 L 146.06125 5.1795 L 145.983125 5.238094 L 145.776094 5.386531 L 145.572969 5.534969 L 145.424531 5.640438 L 145.365938 5.683406 L 145.158906 5.83575 L 144.955781 5.984188 L 144.791719 6.105281 L 144.74875 6.132625 L 144.541719 6.284969 L 144.334688 6.433406 L 144.155 6.566219 L 144.127656 6.581844 L 143.920625 6.730281 L 143.713594 6.882625 L 143.518281 7.02325 L 143.506563 7.031063 L 143.299531 7.1795 L 143.0925 7.331844 L 142.881563 7.480281 L 142.674531 7.628719 L 142.4675 7.781063 L 142.256563 7.9295 L 142.244844 7.937313 L 142.049531 8.077938 L 141.838594 8.226375 L 141.631563 8.378719 L 141.608125 8.394344 L 141.420625 8.527156 L 141.213594 8.675594 L 141.002656 8.827938 L 140.971406 8.847469 L 140.791719 8.976375 L 140.584688 9.124813 L 140.37375 9.277156 L 140.334688 9.300594 L 140.162813 9.425594 L 139.740938 9.722469 L 139.697969 9.753719 L 139.53 9.874813 L 139.108125 10.171688 L 139.065156 10.206844 L 138.897188 10.324031 L 138.68625 10.472469 L 138.471406 10.620906 L 138.428438 10.656063 L 138.260469 10.77325 L 138.049531 10.921688 L 137.834688 11.070125 " transform="matrix(1,0,0,-1,0.72,135.492)"/>
</g>
</svg>
